<svg xmlns="http://www.w3.org/2000/svg" xmlns:xlink="http://www.w3.org/1999/xlink" version="1.1" id="Layer_1" x="0px" y="0px" width="768" height="768" viewBox="0 0 768 768" enable-background="new 0 0 768 768" xml:space="preserve">
<g>
	<polygon fill="#21B573" points="521.775,515.947 491.87,515.947 491.87,567.892 441.916,567.892 441.916,596.909 491.87,596.909    491.87,649.297 521.775,649.297 521.775,596.909 571.727,596.909 571.727,567.892 521.775,567.892  "/>
	<polygon fill="#21B573" points="577.415,489.866 577.415,521.758 643.16,521.758 580.613,649.297 618.33,649.297 683.795,512.351    683.795,489.866  "/>
</g>
<path fill="#595959" d="M765.49,547.949C753.27,455.174,670.23,382.5,576.444,382.5c-5.529,0-11.129,0.252-16.645,0.752  c-100.179,9.065-175.723,91.533-175.723,191.827c0,87.467,59.147,163.524,143.834,184.959c6.099,1.542,12.454,2.861,18.6,4.14  c2.69,0.559,5.383,1.117,8.069,1.697h41.92c2.593-0.557,5.188-1.093,7.786-1.63c5.976-1.232,12.154-2.511,18.076-4.012  c76.712-19.459,132.943-82.623,143.256-160.921c0.249-1.9,0.879-3.468,1.383-4.653v-40.866c-0.055-0.168-0.109-0.335-0.165-0.504  C766.356,551.827,765.76,550.008,765.49,547.949z M686.167,686.08c-30.018,29.427-69.48,45.632-111.121,45.632  c-86.406-0.006-156.786-70.617-156.905-157.404c-0.057-41.696,16.147-80.917,45.624-110.435  c30.114-30.153,70.502-46.76,113.728-46.76h0.112c41.502,0.028,80.522,16.703,109.874,46.955  c29.292,30.189,45.399,70.251,45.358,112.805C732.798,617.829,716.225,656.613,686.167,686.08z"/>
<path fill-rule="evenodd" clip-rule="evenodd" fill="#999999" d="M165.907,101.609c95.43,0,189.765,0,285.284,0  c0,8.727-0.413,17.302,0.076,25.826c1.438,25.031,21.962,44.644,46.494,44.831c25.524,0.194,46.457-19.336,47.831-44.973  c0.446-8.334,0.069-16.714,0.069-24.961c30.578-4.117,52.655,1.633,66.026,27.889c3.138,6.164,5.14,13.643,5.187,20.534  c0.391,61.056,0.229,122.114,0.217,183.172c0,1.217-0.116,2.434-0.206,4.185c-15.535,0-30.939,0-47.165,0  c0-31.222,0-62.456,0-94.035c-174.256,0-347.697,0-522.242,0c0,2.57,0,5.17,0,7.769c0,104.317-0.001,208.635,0.003,312.952  c0,10.932,0.274,11.199,11.278,11.199C146.762,576.001,234.763,576,322.766,576c2.909,0,5.816,0,9.121,0c0,15.861,0,31.091,0,47.469  c-2.478,0-5.07,0-7.664,0c-90.97,0-181.938,0.018-272.906-0.01c-28.525-0.009-51.288-22.762-51.294-51.324  c-0.03-139.913-0.033-279.828,0.003-419.741c0.007-28.146,22.798-50.969,50.786-51.077c6.415-0.026,12.831-0.004,20.618-0.004  c0,8.781-0.366,17.33,0.072,25.839c1.09,21.131,15.967,39.019,35.968,43.788c28.784,6.863,56.623-13.698,58.361-43.36  C166.321,119.223,165.907,110.813,165.907,101.609z"/>
<path fill-rule="evenodd" clip-rule="evenodd" fill="#999999" d="M189.354,385.802c-31.544,0-62.576,0-94.007,0  c0-31.353,0-62.387,0-94.018c31.054,0,62.264,0,94.007,0C189.354,322.775,189.354,353.982,189.354,385.802z"/>
<path fill-rule="evenodd" clip-rule="evenodd" fill="#999999" d="M331.856,385.757c-31.305,0-62.339,0-93.938,0  c0-31.15,0-62.359,0-94.07c31.086,0,62.293,0,93.938,0C331.856,322.972,331.856,354.18,331.856,385.757z"/>
<path fill-rule="evenodd" clip-rule="evenodd" fill="#999999" d="M474.555,291.657c0,31.551,0,62.409,0,93.867  c-31.303,0-62.513,0-94.261,0c0-30.977,0-62.185,0-93.867C411.472,291.657,442.68,291.657,474.555,291.657z"/>
<path fill-rule="evenodd" clip-rule="evenodd" fill="#999999" d="M95.454,433.941c31.616,0,62.649,0,94.055,0  c0,31.377,0,62.411,0,94.018c-31.128,0-62.337,0-94.055,0C95.454,496.895,95.454,465.687,95.454,433.941z"/>
<path fill-rule="evenodd" clip-rule="evenodd" fill="#999999" d="M237.876,433.926c31.566,0,62.6,0,94.022,0  c0,31.359,0,62.393,0,94.018c-31.077,0-62.285,0-94.022,0C237.876,496.928,237.876,465.72,237.876,433.926z"/>
<path fill-rule="evenodd" clip-rule="evenodd" fill="#999999" d="M142.416,77.631c0,15.576,0.041,31.151-0.011,46.727  c-0.049,14.482-9.925,24.497-23.965,24.421c-13.604-0.073-23.449-10.107-23.474-24.162c-0.058-31.399-0.063-62.797,0.001-94.195  c0.027-14.034,9.913-24.008,23.581-24.047c13.772-0.042,23.768,9.842,23.846,23.788C142.484,45.986,142.416,61.81,142.416,77.631z"/>
<path fill-rule="evenodd" clip-rule="evenodd" fill="#999999" d="M522.166,78.163c0,15.576,0.063,31.151-0.02,46.727  c-0.073,13.977-10.019,23.899-23.747,23.89c-13.704-0.01-23.647-9.957-23.683-23.953c-0.076-31.398-0.075-62.797-0.042-94.194  c0.015-14.035,9.855-24.152,23.413-24.256c14.099-0.11,24.011,9.853,24.064,24.32C522.211,46.518,522.166,62.341,522.166,78.163z"/>
</svg>