<svg width="700" height="400" xmlns="http://www.w3.org/2000/svg" preserveAspectRatio="xMidYMid meet" version="1.0">
 <metadata>Created by potrace 1.15, written by Peter Selinger 2001-2017</metadata>

 <g>
  <title>Layer 1</title>
  <g stroke="null" id="svg_1" fill="#000000" transform="rotate(-42.5317 677.976 526.429) translate(0 1280) scale(0.1 -0.1)">
   <path stroke="null" id="svg_2" d="m3239.09083,12178.16745c-63.54766,-26.79175 -121.04316,-107.93247 -134.35791,-189.83867c-26.02428,-157.68857 98.65018,-315.37715 223.32463,-282.46157c93.80845,24.49531 166.43435,145.44092 157.35611,259.49722c-6.65737,80.37524 -54.46942,163.04692 -114.991,200.55537c-36.91816,22.19888 -93.80845,27.55723 -131.33183,12.24766z"/>
   <path stroke="null" id="svg_3" d="m4013.76706,12178.16745c-91.38759,-38.27393 -153.1196,-165.34336 -134.35791,-277.10322c15.1304,-91.09194 82.30935,-176.06006 153.72482,-195.19702c117.41187,-31.38462 239.06025,108.69795 226.95593,259.49722c-6.65737,80.37524 -54.46942,163.04692 -114.991,200.55537c-36.91816,22.19888 -93.80845,27.55723 -131.33183,12.24766z"/>
   <path stroke="null" id="svg_4" d="m4788.4433,12178.16745c-63.54766,-26.79175 -121.04316,-107.93247 -134.35791,-189.83867c-26.02428,-157.68857 98.65018,-315.37715 223.32463,-282.46157c93.80845,24.49531 166.43435,145.44092 157.35611,259.49722c-6.65737,80.37524 -54.46942,163.04692 -114.991,200.55537c-36.91816,22.19888 -93.80845,27.55723 -131.33183,12.24766z"/>
   <path stroke="null" id="svg_5" d="m5563.11954,12178.16745c-63.54766,-26.79175 -121.04316,-107.93247 -134.35791,-189.83867c-26.02428,-157.68857 98.65018,-315.37715 223.32463,-282.46157c93.80845,24.49531 166.43435,145.44092 157.35611,259.49722c-6.65737,80.37524 -54.46942,163.04692 -114.991,200.55537c-36.91816,22.19888 -93.80845,27.55723 -131.33183,12.24766z"/>
   <path stroke="null" id="svg_6" d="m6337.79578,12178.16745c-63.54766,-26.79175 -121.04316,-107.93247 -134.35791,-189.83867c-26.02428,-157.68857 98.65018,-315.37715 223.32463,-282.46157c93.80845,24.49531 166.43435,145.44092 157.35611,259.49722c-6.65737,80.37524 -54.46942,163.04692 -114.991,200.55537c-36.91816,22.19888 -93.80845,27.55723 -131.33183,12.24766z"/>
   <path stroke="null" id="svg_7" d="m7112.47202,12178.16745c-63.54766,-26.79175 -121.04316,-107.93247 -134.35791,-189.83867c-26.02428,-157.68857 98.65018,-315.37715 223.32463,-282.46157c93.80845,24.49531 166.43435,145.44092 157.35611,259.49722c-6.65737,80.37524 -54.46942,163.04692 -114.991,200.55537c-36.91816,22.19888 -93.80845,27.55723 -131.33183,12.24766z"/>
   <path stroke="null" id="svg_8" d="m7887.14826,12178.16745c-63.54766,-26.79175 -121.04316,-107.93247 -134.35791,-189.83867c-26.02428,-157.68857 98.65018,-315.37715 223.32463,-282.46157c93.80845,24.49531 166.43435,145.44092 157.35611,259.49722c-6.65737,80.37524 -54.46942,163.04692 -114.991,200.55537c-36.91816,22.19888 -93.80845,27.55723 -131.33183,12.24766z"/>
   <path stroke="null" id="svg_9" d="m8661.8245,12178.16745c-63.54766,-26.79175 -121.04316,-107.93247 -134.35791,-189.83867c-26.02428,-157.68857 98.65018,-315.37715 223.32463,-282.46157c93.80845,24.49531 166.43435,145.44092 157.35611,259.49722c-6.65737,80.37524 -54.46942,163.04692 -114.991,200.55537c-36.91816,22.19888 -93.80845,27.55723 -131.33183,12.24766z"/>
   <path stroke="null" id="svg_10" d="m9436.50074,12178.16745c-63.54766,-26.79175 -121.04316,-107.93247 -134.35791,-189.83867c-15.1304,-89.56099 19.36691,-186.77676 85.94065,-244.18765c64.75809,-56.64541 138.59442,-57.41089 203.95773,-2.29644c107.1232,90.32646 121.64838,258.73174 32.07644,371.25708c-51.44334,65.83115 -125.27967,91.09194 -187.6169,65.06567z"/>
   <path stroke="null" id="svg_11" d="m10211.17698,12178.16745c-63.54766,-26.79175 -121.04316,-107.93247 -134.35791,-189.83867c-15.1304,-89.56099 19.36691,-186.77676 85.94065,-244.18765c64.75809,-56.64541 138.59442,-57.41089 203.95773,-2.29644c107.1232,90.32646 121.64838,258.73174 32.07644,371.25708c-51.44334,65.83115 -125.27967,91.09194 -187.6169,65.06567z"/>
   <path stroke="null" id="svg_12" d="m3239.09083,11198.35495c-63.54766,-26.79175 -121.04316,-107.93247 -134.35791,-189.83867c-26.02428,-157.68857 98.65018,-315.37715 223.32463,-282.46157c93.80845,24.49531 166.43435,145.44092 157.35611,259.49722c-6.65737,80.37524 -54.46942,163.04692 -114.991,200.55537c-36.91816,22.19888 -93.80845,27.55723 -131.33183,12.24766z"/>
   <path stroke="null" id="svg_13" d="m4013.76706,11198.35495c-91.38759,-38.27393 -153.1196,-165.34336 -134.35791,-277.10322c15.1304,-91.09194 82.30935,-176.06006 153.72482,-195.19702c117.41187,-31.38462 239.06025,108.69795 226.95593,259.49722c-6.65737,80.37524 -54.46942,163.04692 -114.991,200.55537c-36.91816,22.19888 -93.80845,27.55723 -131.33183,12.24766z"/>
   <path stroke="null" id="svg_14" d="m4788.4433,11198.35495c-63.54766,-26.79175 -121.04316,-107.93247 -134.35791,-189.83867c-26.02428,-157.68857 98.65018,-315.37715 223.32463,-282.46157c93.80845,24.49531 166.43435,145.44092 157.35611,259.49722c-6.65737,80.37524 -54.46942,163.04692 -114.991,200.55537c-36.91816,22.19888 -93.80845,27.55723 -131.33183,12.24766z"/>
   <path stroke="null" id="svg_15" d="m5563.11954,11198.35495c-63.54766,-26.79175 -121.04316,-107.93247 -134.35791,-189.83867c-26.02428,-157.68857 98.65018,-315.37715 223.32463,-282.46157c93.80845,24.49531 166.43435,145.44092 157.35611,259.49722c-6.65737,80.37524 -54.46942,163.04692 -114.991,200.55537c-36.91816,22.19888 -93.80845,27.55723 -131.33183,12.24766z"/>
   <path stroke="null" id="svg_16" d="m6337.79578,11198.35495c-63.54766,-26.79175 -121.04316,-107.93247 -134.35791,-189.83867c-26.02428,-157.68857 98.65018,-315.37715 223.32463,-282.46157c93.80845,24.49531 166.43435,145.44092 157.35611,259.49722c-6.65737,80.37524 -54.46942,163.04692 -114.991,200.55537c-36.91816,22.19888 -93.80845,27.55723 -131.33183,12.24766z"/>
   <path stroke="null" id="svg_17" d="m7112.47202,11198.35495c-63.54766,-26.79175 -121.04316,-107.93247 -134.35791,-189.83867c-26.02428,-157.68857 98.65018,-315.37715 223.32463,-282.46157c93.80845,24.49531 166.43435,145.44092 157.35611,259.49722c-6.65737,80.37524 -54.46942,163.04692 -114.991,200.55537c-36.91816,22.19888 -93.80845,27.55723 -131.33183,12.24766z"/>
   <path stroke="null" id="svg_18" d="m7887.14826,11198.35495c-63.54766,-26.79175 -121.04316,-107.93247 -134.35791,-189.83867c-26.02428,-157.68857 98.65018,-315.37715 223.32463,-282.46157c93.80845,24.49531 166.43435,145.44092 157.35611,259.49722c-6.65737,80.37524 -54.46942,163.04692 -114.991,200.55537c-36.91816,22.19888 -93.80845,27.55723 -131.33183,12.24766z"/>
   <path stroke="null" id="svg_19" d="m8661.8245,11198.35495c-63.54766,-26.79175 -121.04316,-107.93247 -134.35791,-189.83867c-26.02428,-157.68857 98.65018,-315.37715 223.32463,-282.46157c93.80845,24.49531 166.43435,145.44092 157.35611,259.49722c-6.65737,80.37524 -54.46942,163.04692 -114.991,200.55537c-36.91816,22.19888 -93.80845,27.55723 -131.33183,12.24766z"/>
   <path stroke="null" id="svg_20" d="m9436.50074,11198.35495c-63.54766,-26.79175 -121.04316,-107.93247 -134.35791,-189.83867c-15.1304,-89.56099 19.36691,-186.77676 85.94065,-244.18765c64.75809,-56.64541 138.59442,-57.41089 203.95773,-2.29644c107.1232,90.32646 121.64838,258.73174 32.07644,371.25708c-51.44334,65.83115 -125.27967,91.09194 -187.6169,65.06567z"/>
   <path stroke="null" id="svg_21" d="m10211.17698,11198.35495c-63.54766,-26.79175 -121.04316,-107.93247 -134.35791,-189.83867c-15.1304,-89.56099 19.36691,-186.77676 85.94065,-244.18765c64.75809,-56.64541 138.59442,-57.41089 203.95773,-2.29644c107.1232,90.32646 121.64838,258.73174 32.07644,371.25708c-51.44334,65.83115 -125.27967,91.09194 -187.6169,65.06567z"/>
   <path stroke="null" id="svg_22" d="m3239.09083,10218.54245c-63.54766,-26.79175 -121.04316,-107.93247 -134.35791,-189.83867c-26.02428,-157.68857 98.65018,-315.37715 223.32463,-282.46157c93.80845,24.49531 166.43435,145.44092 157.35611,259.49722c-6.65737,80.37524 -54.46942,163.04692 -114.991,200.55537c-36.91816,22.19888 -93.80845,27.55723 -131.33183,12.24766z"/>
   <path stroke="null" id="svg_23" d="m4013.76706,10218.54245c-63.54766,-26.79175 -121.04316,-107.93247 -134.35791,-189.83867c-26.02428,-157.68857 98.65018,-315.37715 223.32463,-282.46157c93.80845,24.49531 166.43435,145.44092 157.35611,259.49722c-6.65737,80.37524 -54.46942,163.04692 -114.991,200.55537c-36.91816,22.19888 -93.80845,27.55723 -131.33183,12.24766z"/>
   <path stroke="null" id="svg_24" d="m4788.4433,10218.54245c-63.54766,-26.79175 -121.04316,-107.93247 -134.35791,-189.83867c-26.02428,-157.68857 98.65018,-315.37715 223.32463,-282.46157c93.80845,24.49531 166.43435,145.44092 157.35611,259.49722c-6.65737,80.37524 -54.46942,163.04692 -114.991,200.55537c-36.91816,22.19888 -93.80845,27.55723 -131.33183,12.24766z"/>
   <path stroke="null" id="svg_25" d="m5563.11954,10218.54245c-63.54766,-26.79175 -121.04316,-107.93247 -134.35791,-189.83867c-26.02428,-157.68857 98.65018,-315.37715 223.32463,-282.46157c93.80845,24.49531 166.43435,145.44092 157.35611,259.49722c-6.65737,80.37524 -54.46942,163.04692 -114.991,200.55537c-36.91816,22.19888 -93.80845,27.55723 -131.33183,12.24766z"/>
   <path stroke="null" id="svg_26" d="m6337.79578,10218.54245c-63.54766,-26.79175 -121.04316,-107.93247 -134.35791,-189.83867c-26.02428,-157.68857 98.65018,-315.37715 223.32463,-282.46157c93.80845,24.49531 166.43435,145.44092 157.35611,259.49722c-6.65737,80.37524 -54.46942,163.04692 -114.991,200.55537c-36.91816,22.19888 -93.80845,27.55723 -131.33183,12.24766z"/>
   <path stroke="null" id="svg_27" d="m7112.47202,10218.54245c-63.54766,-26.79175 -121.04316,-107.93247 -134.35791,-189.83867c-26.02428,-157.68857 98.65018,-315.37715 223.32463,-282.46157c93.80845,24.49531 166.43435,145.44092 157.35611,259.49722c-6.65737,80.37524 -54.46942,163.04692 -114.991,200.55537c-36.91816,22.19888 -93.80845,27.55723 -131.33183,12.24766z"/>
   <path stroke="null" id="svg_28" d="m7887.14826,10218.54245c-63.54766,-26.79175 -121.04316,-107.93247 -134.35791,-189.83867c-26.02428,-157.68857 98.65018,-315.37715 223.32463,-282.46157c93.80845,24.49531 166.43435,145.44092 157.35611,259.49722c-6.65737,80.37524 -54.46942,163.04692 -114.991,200.55537c-36.91816,22.19888 -93.80845,27.55723 -131.33183,12.24766z"/>
   <path stroke="null" id="svg_29" d="m8661.8245,10218.54245c-63.54766,-26.79175 -121.04316,-107.93247 -134.35791,-189.83867c-26.02428,-157.68857 98.65018,-315.37715 223.32463,-282.46157c93.80845,24.49531 166.43435,145.44092 157.35611,259.49722c-6.65737,80.37524 -54.46942,163.04692 -114.991,200.55537c-36.91816,22.19888 -93.80845,27.55723 -131.33183,12.24766z"/>
   <path stroke="null" id="svg_30" d="m9436.50074,10218.54245c-63.54766,-26.79175 -121.04316,-107.93247 -134.35791,-189.83867c-26.02428,-157.68857 98.65018,-315.37715 223.32463,-282.46157c93.80845,24.49531 166.43435,145.44092 157.35611,259.49722c-6.65737,80.37524 -54.46942,163.04692 -114.991,200.55537c-36.91816,22.19888 -93.80845,27.55723 -131.33183,12.24766z"/>
   <path stroke="null" id="svg_31" d="m10211.17698,10218.54245c-63.54766,-26.79175 -121.04316,-107.93247 -134.35791,-189.83867c-26.02428,-157.68857 98.65018,-315.37715 223.32463,-282.46157c93.80845,24.49531 166.43435,145.44092 157.35611,259.49722c-6.65737,80.37524 -54.46942,163.04692 -114.991,200.55537c-36.91816,22.19888 -93.80845,27.55723 -131.33183,12.24766z"/>
   <path stroke="null" id="svg_32" d="m3239.09083,9238.72995c-63.54766,-26.79175 -121.04316,-107.93247 -134.35791,-189.83867c-26.02428,-157.68857 98.65018,-315.37715 223.32463,-282.46157c93.80845,24.49531 166.43435,145.44092 157.35611,259.49722c-6.65737,80.37524 -54.46942,163.04692 -114.991,200.55537c-36.91816,22.19888 -93.80845,27.55723 -131.33183,12.24766z"/>
   <path stroke="null" id="svg_33" d="m4013.76706,9238.72995c-63.54766,-26.79175 -121.04316,-107.93247 -134.35791,-189.83867c-26.02428,-157.68857 98.65018,-315.37715 223.32463,-282.46157c93.80845,24.49531 166.43435,145.44092 157.35611,259.49722c-6.65737,80.37524 -54.46942,163.04692 -114.991,200.55537c-36.91816,22.19888 -93.80845,27.55723 -131.33183,12.24766z"/>
   <path stroke="null" id="svg_34" d="m4788.4433,9238.72995c-63.54766,-26.79175 -121.04316,-107.93247 -134.35791,-189.83867c-26.02428,-157.68857 98.65018,-315.37715 223.32463,-282.46157c93.80845,24.49531 166.43435,145.44092 157.35611,259.49722c-6.65737,80.37524 -54.46942,163.04692 -114.991,200.55537c-36.91816,22.19888 -93.80845,27.55723 -131.33183,12.24766z"/>
   <path stroke="null" id="svg_35" d="m5563.11954,9238.72995c-63.54766,-26.79175 -121.04316,-107.93247 -134.35791,-189.83867c-26.02428,-157.68857 98.65018,-315.37715 223.32463,-282.46157c93.80845,24.49531 166.43435,145.44092 157.35611,259.49722c-6.65737,80.37524 -54.46942,163.04692 -114.991,200.55537c-36.91816,22.19888 -93.80845,27.55723 -131.33183,12.24766z"/>
   <path stroke="null" id="svg_36" d="m6337.79578,9238.72995c-63.54766,-26.79175 -121.04316,-107.93247 -134.35791,-189.83867c-26.02428,-157.68857 98.65018,-315.37715 223.32463,-282.46157c93.80845,24.49531 166.43435,145.44092 157.35611,259.49722c-6.65737,80.37524 -54.46942,163.04692 -114.991,200.55537c-36.91816,22.19888 -93.80845,27.55723 -131.33183,12.24766z"/>
   <path stroke="null" id="svg_37" d="m7112.47202,9238.72995c-63.54766,-26.79175 -121.04316,-107.93247 -134.35791,-189.83867c-26.02428,-157.68857 98.65018,-315.37715 223.32463,-282.46157c93.80845,24.49531 166.43435,145.44092 157.35611,259.49722c-6.65737,80.37524 -54.46942,163.04692 -114.991,200.55537c-36.91816,22.19888 -93.80845,27.55723 -131.33183,12.24766z"/>
   <path stroke="null" id="svg_38" d="m7887.14826,9238.72995c-63.54766,-26.79175 -121.04316,-107.93247 -134.35791,-189.83867c-26.02428,-157.68857 98.65018,-315.37715 223.32463,-282.46157c93.80845,24.49531 166.43435,145.44092 157.35611,259.49722c-6.65737,80.37524 -54.46942,163.04692 -114.991,200.55537c-36.91816,22.19888 -93.80845,27.55723 -131.33183,12.24766z"/>
   <path stroke="null" id="svg_39" d="m8661.8245,9238.72995c-63.54766,-26.79175 -121.04316,-107.93247 -134.35791,-189.83867c-26.02428,-157.68857 98.65018,-315.37715 223.32463,-282.46157c93.80845,24.49531 166.43435,145.44092 157.35611,259.49722c-6.65737,80.37524 -54.46942,163.04692 -114.991,200.55537c-36.91816,22.19888 -93.80845,27.55723 -131.33183,12.24766z"/>
   <path stroke="null" id="svg_40" d="m9436.50074,9238.72995c-63.54766,-26.79175 -121.04316,-107.93247 -134.35791,-189.83867c-26.02428,-157.68857 98.65018,-315.37715 223.32463,-282.46157c93.80845,24.49531 166.43435,145.44092 157.35611,259.49722c-6.65737,80.37524 -54.46942,163.04692 -114.991,200.55537c-36.91816,22.19888 -93.80845,27.55723 -131.33183,12.24766z"/>
   <path stroke="null" id="svg_41" d="m10211.17698,9238.72995c-63.54766,-26.79175 -121.04316,-107.93247 -134.35791,-189.83867c-26.02428,-157.68857 98.65018,-315.37715 223.32463,-282.46157c93.80845,24.49531 166.43435,145.44092 157.35611,259.49722c-6.65737,80.37524 -54.46942,163.04692 -114.991,200.55537c-36.91816,22.19888 -93.80845,27.55723 -131.33183,12.24766z"/>
   <path stroke="null" id="svg_42" d="m3239.09083,8258.91745c-63.54766,-26.79175 -121.04316,-107.93247 -134.35791,-189.83867c-26.02428,-157.68857 98.65018,-315.37715 223.32463,-282.46157c93.80845,24.49531 166.43435,145.44092 157.35611,259.49722c-6.65737,80.37524 -54.46942,163.04692 -114.991,200.55537c-36.91816,22.19888 -93.80845,27.55723 -131.33183,12.24766z"/>
   <path stroke="null" id="svg_43" d="m4013.76706,8258.91745c-63.54766,-26.79175 -121.04316,-107.93247 -134.35791,-189.83867c-26.02428,-157.68857 98.65018,-315.37715 223.32463,-282.46157c93.80845,24.49531 166.43435,145.44092 157.35611,259.49722c-6.65737,80.37524 -54.46942,163.04692 -114.991,200.55537c-36.91816,22.19888 -93.80845,27.55723 -131.33183,12.24766z"/>
   <path stroke="null" id="svg_44" d="m4788.4433,8258.91745c-63.54766,-26.79175 -121.04316,-107.93247 -134.35791,-189.83867c-26.02428,-157.68857 98.65018,-315.37715 223.32463,-282.46157c93.80845,24.49531 166.43435,145.44092 157.35611,259.49722c-6.65737,80.37524 -54.46942,163.04692 -114.991,200.55537c-36.91816,22.19888 -93.80845,27.55723 -131.33183,12.24766z"/>
   <path stroke="null" id="svg_45" d="m5563.11954,8258.91745c-63.54766,-26.79175 -121.04316,-107.93247 -134.35791,-189.83867c-26.02428,-157.68857 98.65018,-315.37715 223.32463,-282.46157c93.80845,24.49531 166.43435,145.44092 157.35611,259.49722c-6.65737,80.37524 -54.46942,163.04692 -114.991,200.55537c-36.91816,22.19888 -93.80845,27.55723 -131.33183,12.24766z"/>
   <path stroke="null" id="svg_46" d="m6337.79578,8258.91745c-63.54766,-26.79175 -121.04316,-107.93247 -134.35791,-189.83867c-26.02428,-157.68857 98.65018,-315.37715 223.32463,-282.46157c93.80845,24.49531 166.43435,145.44092 157.35611,259.49722c-6.65737,80.37524 -54.46942,163.04692 -114.991,200.55537c-36.91816,22.19888 -93.80845,27.55723 -131.33183,12.24766z"/>
   <path stroke="null" id="svg_47" d="m7112.47202,8258.91745c-63.54766,-26.79175 -121.04316,-107.93247 -134.35791,-189.83867c-26.02428,-157.68857 98.65018,-315.37715 223.32463,-282.46157c93.80845,24.49531 166.43435,145.44092 157.35611,259.49722c-6.65737,80.37524 -54.46942,163.04692 -114.991,200.55537c-36.91816,22.19888 -93.80845,27.55723 -131.33183,12.24766z"/>
   <path stroke="null" id="svg_48" d="m7887.14826,8258.91745c-63.54766,-26.79175 -121.04316,-107.93247 -134.35791,-189.83867c-26.02428,-157.68857 98.65018,-315.37715 223.32463,-282.46157c93.80845,24.49531 166.43435,145.44092 157.35611,259.49722c-6.65737,80.37524 -54.46942,163.04692 -114.991,200.55537c-36.91816,22.19888 -93.80845,27.55723 -131.33183,12.24766z"/>
   <path stroke="null" id="svg_49" d="m8661.8245,8258.91745c-63.54766,-26.79175 -121.04316,-107.93247 -134.35791,-189.83867c-26.02428,-157.68857 98.65018,-315.37715 223.32463,-282.46157c93.80845,24.49531 166.43435,145.44092 157.35611,259.49722c-6.65737,80.37524 -54.46942,163.04692 -114.991,200.55537c-36.91816,22.19888 -93.80845,27.55723 -131.33183,12.24766z"/>
   <path stroke="null" id="svg_50" d="m9436.50074,8258.91745c-63.54766,-26.79175 -121.04316,-107.93247 -134.35791,-189.83867c-26.02428,-157.68857 98.65018,-315.37715 223.32463,-282.46157c93.80845,24.49531 166.43435,145.44092 157.35611,259.49722c-6.65737,80.37524 -54.46942,163.04692 -114.991,200.55537c-36.91816,22.19888 -93.80845,27.55723 -131.33183,12.24766z"/>
   <path stroke="null" id="svg_51" d="m10211.17698,8258.91745c-63.54766,-26.79175 -121.04316,-107.93247 -134.35791,-189.83867c-26.02428,-157.68857 98.65018,-315.37715 223.32463,-282.46157c93.80845,24.49531 166.43435,145.44092 157.35611,259.49722c-6.65737,80.37524 -54.46942,163.04692 -114.991,200.55537c-36.91816,22.19888 -93.80845,27.55723 -131.33183,12.24766z"/>
   <path stroke="null" id="svg_52" d="m3239.09083,7279.10495c-63.54766,-26.79175 -121.04316,-107.93247 -134.35791,-189.83867c-26.02428,-157.68857 98.65018,-315.37715 223.32463,-282.46157c93.80845,24.49531 166.43435,145.44092 157.35611,259.49722c-6.65737,80.37524 -54.46942,163.04692 -114.991,200.55537c-36.91816,22.19888 -93.80845,27.55723 -131.33183,12.24766z"/>
   <path stroke="null" id="svg_53" d="m4013.76706,7279.10495c-63.54766,-26.79175 -121.04316,-107.93247 -134.35791,-189.83867c-26.02428,-157.68857 98.65018,-315.37715 223.32463,-282.46157c93.80845,24.49531 166.43435,145.44092 157.35611,259.49722c-6.65737,80.37524 -54.46942,163.04692 -114.991,200.55537c-36.91816,22.19888 -93.80845,27.55723 -131.33183,12.24766z"/>
   <path stroke="null" id="svg_54" d="m4788.4433,7279.10495c-63.54766,-26.79175 -121.04316,-107.93247 -134.35791,-189.83867c-26.02428,-157.68857 98.65018,-315.37715 223.32463,-282.46157c93.80845,24.49531 166.43435,145.44092 157.35611,259.49722c-6.65737,80.37524 -54.46942,163.04692 -114.991,200.55537c-36.91816,22.19888 -93.80845,27.55723 -131.33183,12.24766z"/>
   <path stroke="null" id="svg_55" d="m5563.11954,7279.10495c-63.54766,-26.79175 -121.04316,-107.93247 -134.35791,-189.83867c-26.02428,-157.68857 98.65018,-315.37715 223.32463,-282.46157c93.80845,24.49531 166.43435,145.44092 157.35611,259.49722c-6.65737,80.37524 -54.46942,163.04692 -114.991,200.55537c-36.91816,22.19888 -93.80845,27.55723 -131.33183,12.24766z"/>
   <path stroke="null" id="svg_56" d="m6337.79578,7279.10495c-63.54766,-26.79175 -121.04316,-107.93247 -134.35791,-189.83867c-26.02428,-157.68857 98.65018,-315.37715 223.32463,-282.46157c93.80845,24.49531 166.43435,145.44092 157.35611,259.49722c-6.65737,80.37524 -54.46942,163.04692 -114.991,200.55537c-36.91816,22.19888 -93.80845,27.55723 -131.33183,12.24766z"/>
   <path stroke="null" id="svg_57" d="m7112.47202,7279.10495c-63.54766,-26.79175 -121.04316,-107.93247 -134.35791,-189.83867c-26.02428,-157.68857 98.65018,-315.37715 223.32463,-282.46157c93.80845,24.49531 166.43435,145.44092 157.35611,259.49722c-6.65737,80.37524 -54.46942,163.04692 -114.991,200.55537c-36.91816,22.19888 -93.80845,27.55723 -131.33183,12.24766z"/>
   <path stroke="null" id="svg_58" d="m7887.14826,7279.10495c-63.54766,-26.79175 -121.04316,-107.93247 -134.35791,-189.83867c-26.02428,-157.68857 98.65018,-315.37715 223.32463,-282.46157c93.80845,24.49531 166.43435,145.44092 157.35611,259.49722c-6.65737,80.37524 -54.46942,163.04692 -114.991,200.55537c-36.91816,22.19888 -93.80845,27.55723 -131.33183,12.24766z"/>
   <path stroke="null" id="svg_59" d="m8661.8245,7279.10495c-63.54766,-26.79175 -121.04316,-107.93247 -134.35791,-189.83867c-26.02428,-157.68857 98.65018,-315.37715 223.32463,-282.46157c93.80845,24.49531 166.43435,145.44092 157.35611,259.49722c-6.65737,80.37524 -54.46942,163.04692 -114.991,200.55537c-36.91816,22.19888 -93.80845,27.55723 -131.33183,12.24766z"/>
   <path stroke="null" id="svg_60" d="m9436.50074,7279.10495c-63.54766,-26.79175 -121.04316,-107.93247 -134.35791,-189.83867c-26.02428,-157.68857 98.65018,-315.37715 223.32463,-282.46157c93.80845,24.49531 166.43435,145.44092 157.35611,259.49722c-6.65737,80.37524 -54.46942,163.04692 -114.991,200.55537c-36.91816,22.19888 -93.80845,27.55723 -131.33183,12.24766z"/>
   <path stroke="null" id="svg_61" d="m10211.17698,7279.10495c-63.54766,-26.79175 -121.04316,-107.93247 -134.35791,-189.83867c-26.02428,-157.68857 98.65018,-315.37715 223.32463,-282.46157c93.80845,24.49531 166.43435,145.44092 157.35611,259.49722c-6.65737,80.37524 -54.46942,163.04692 -114.991,200.55537c-36.91816,22.19888 -93.80845,27.55723 -131.33183,12.24766z"/>
   <path stroke="null" id="svg_62" d="m3239.09083,6299.29245c-63.54766,-26.79175 -121.04316,-107.93247 -134.35791,-189.83867c-26.02428,-157.68857 98.65018,-315.37715 223.32463,-282.46157c93.80845,24.49531 166.43435,145.44092 157.35611,259.49722c-6.65737,80.37524 -54.46942,163.04692 -114.991,200.55537c-36.91816,22.19888 -93.80845,27.55723 -131.33183,12.24766z"/>
   <path stroke="null" id="svg_63" d="m4013.76706,6299.29245c-63.54766,-26.79175 -121.04316,-107.93247 -134.35791,-189.83867c-26.02428,-157.68857 98.65018,-315.37715 223.32463,-282.46157c93.80845,24.49531 166.43435,145.44092 157.35611,259.49722c-6.65737,80.37524 -54.46942,163.04692 -114.991,200.55537c-36.91816,22.19888 -93.80845,27.55723 -131.33183,12.24766z"/>
   <path stroke="null" id="svg_64" d="m4788.4433,6299.29245c-63.54766,-26.79175 -121.04316,-107.93247 -134.35791,-189.83867c-15.1304,-89.56099 19.36691,-186.77676 85.94065,-244.18765c64.75809,-56.64541 138.59442,-57.41089 203.95773,-2.29644c107.1232,90.32646 121.64838,258.73174 32.07644,371.25708c-51.44334,65.83115 -125.27967,91.09194 -187.6169,65.06567z"/>
   <path stroke="null" id="svg_65" d="m5563.11954,6299.29245c-63.54766,-26.79175 -121.04316,-107.93247 -134.35791,-189.83867c-15.1304,-89.56099 19.36691,-186.77676 85.94065,-244.18765c64.75809,-56.64541 138.59442,-57.41089 203.95773,-2.29644c107.1232,90.32646 121.64838,258.73174 32.07644,371.25708c-51.44334,65.83115 -125.27967,91.09194 -187.6169,65.06567z"/>
   <path stroke="null" id="svg_66" d="m6337.79578,6299.29245c-91.38759,-38.27393 -153.1196,-165.34336 -134.35791,-277.10322c15.1304,-91.09194 82.30935,-176.06006 154.33003,-195.19702c116.80665,-31.38462 238.45503,108.69795 226.35071,259.49722c-6.65737,80.37524 -54.46942,163.04692 -114.991,200.55537c-36.91816,22.19888 -93.80845,27.55723 -131.33183,12.24766z"/>
   <path stroke="null" id="svg_67" d="m7112.47202,6299.29245c-91.38759,-38.27393 -153.1196,-165.34336 -134.35791,-277.10322c15.1304,-91.09194 82.30935,-176.06006 154.33003,-195.19702c116.80665,-31.38462 238.45503,108.69795 226.35071,259.49722c-6.65737,80.37524 -54.46942,163.04692 -114.991,200.55537c-36.91816,22.19888 -93.80845,27.55723 -131.33183,12.24766z"/>
   <path stroke="null" id="svg_68" d="m7887.14826,6299.29245c-91.38759,-38.27393 -153.1196,-165.34336 -134.35791,-277.10322c15.1304,-91.09194 82.30935,-176.06006 154.33003,-195.19702c116.80665,-31.38462 238.45503,108.69795 226.35071,259.49722c-6.65737,80.37524 -54.46942,163.04692 -114.991,200.55537c-36.91816,22.19888 -93.80845,27.55723 -131.33183,12.24766z"/>
   <path stroke="null" id="svg_69" d="m8661.8245,6299.29245c-91.38759,-38.27393 -153.1196,-165.34336 -134.35791,-277.10322c15.1304,-91.09194 82.30935,-176.06006 154.33003,-195.19702c116.80665,-31.38462 238.45503,108.69795 226.35071,259.49722c-6.65737,80.37524 -54.46942,163.04692 -114.991,200.55537c-36.91816,22.19888 -93.80845,27.55723 -131.33183,12.24766z"/>
   <path stroke="null" id="svg_70" d="m9436.50074,6299.29245c-63.54766,-26.79175 -121.04316,-107.93247 -134.35791,-189.83867c-26.02428,-157.68857 98.65018,-315.37715 223.32463,-282.46157c93.80845,24.49531 166.43435,145.44092 157.35611,259.49722c-6.65737,80.37524 -54.46942,163.04692 -114.991,200.55537c-36.91816,22.19888 -93.80845,27.55723 -131.33183,12.24766z"/>
   <path stroke="null" id="svg_71" d="m10211.17698,6299.29245c-63.54766,-26.79175 -121.04316,-107.93247 -134.35791,-189.83867c-26.02428,-157.68857 98.65018,-315.37715 223.32463,-282.46157c93.80845,24.49531 166.43435,145.44092 157.35611,259.49722c-6.65737,80.37524 -54.46942,163.04692 -114.991,200.55537c-36.91816,22.19888 -93.80845,27.55723 -131.33183,12.24766z"/>
   <path stroke="null" id="svg_72" d="m3239.09083,5319.47995c-63.54766,-26.79175 -121.04316,-107.93247 -134.35791,-189.83867c-26.02428,-157.68857 98.65018,-315.37715 223.32463,-282.46157c93.80845,24.49531 166.43435,145.44092 157.35611,259.49722c-6.65737,80.37524 -54.46942,163.04692 -114.991,200.55537c-36.91816,22.19888 -93.80845,27.55723 -131.33183,12.24766z"/>
   <path stroke="null" id="svg_73" d="m4013.76706,5319.47995c-63.54766,-26.79175 -121.04316,-107.93247 -134.35791,-189.83867c-26.02428,-157.68857 98.65018,-315.37715 223.32463,-282.46157c93.80845,24.49531 166.43435,145.44092 157.35611,259.49722c-6.65737,80.37524 -54.46942,163.04692 -114.991,200.55537c-36.91816,22.19888 -93.80845,27.55723 -131.33183,12.24766z"/>
   <path stroke="null" id="svg_74" d="m4788.4433,5319.47995c-63.54766,-26.79175 -121.04316,-107.93247 -134.35791,-189.83867c-15.1304,-89.56099 19.36691,-186.77676 85.94065,-244.18765c64.75809,-56.64541 138.59442,-57.41089 203.95773,-2.29644c107.1232,90.32646 121.64838,258.73174 32.07644,371.25708c-51.44334,65.83115 -125.27967,91.09194 -187.6169,65.06567z"/>
   <path stroke="null" id="svg_75" d="m5563.11954,5319.47995c-63.54766,-26.79175 -121.04316,-107.93247 -134.35791,-189.83867c-15.1304,-89.56099 19.36691,-186.77676 85.94065,-244.18765c64.75809,-56.64541 138.59442,-57.41089 203.95773,-2.29644c107.1232,90.32646 121.64838,258.73174 32.07644,371.25708c-51.44334,65.83115 -125.27967,91.09194 -187.6169,65.06567z"/>
   <path stroke="null" id="svg_76" d="m6337.79578,5319.47995c-91.38759,-38.27393 -153.1196,-165.34336 -134.35791,-277.10322c15.1304,-91.09194 82.30935,-176.06006 154.33003,-195.19702c116.80665,-31.38462 238.45503,108.69795 226.35071,259.49722c-6.65737,80.37524 -54.46942,163.04692 -114.991,200.55537c-36.91816,22.19888 -93.80845,27.55723 -131.33183,12.24766z"/>
   <path stroke="null" id="svg_77" d="m7112.47202,5319.47995c-91.38759,-38.27393 -153.1196,-165.34336 -134.35791,-277.10322c15.1304,-91.09194 82.30935,-176.06006 154.33003,-195.19702c116.80665,-31.38462 238.45503,108.69795 226.35071,259.49722c-6.65737,80.37524 -54.46942,163.04692 -114.991,200.55537c-36.91816,22.19888 -93.80845,27.55723 -131.33183,12.24766z"/>
   <path stroke="null" id="svg_78" d="m7887.14826,5319.47995c-91.38759,-38.27393 -153.1196,-165.34336 -134.35791,-277.10322c15.1304,-91.09194 82.30935,-176.06006 154.33003,-195.19702c116.80665,-31.38462 238.45503,108.69795 226.35071,259.49722c-6.65737,80.37524 -54.46942,163.04692 -114.991,200.55537c-36.91816,22.19888 -93.80845,27.55723 -131.33183,12.24766z"/>
   <path stroke="null" id="svg_79" d="m8661.8245,5319.47995c-91.38759,-38.27393 -153.1196,-165.34336 -134.35791,-277.10322c15.1304,-91.09194 82.30935,-176.06006 154.33003,-195.19702c116.80665,-31.38462 238.45503,108.69795 226.35071,259.49722c-6.65737,80.37524 -54.46942,163.04692 -114.991,200.55537c-36.91816,22.19888 -93.80845,27.55723 -131.33183,12.24766z"/>
   <path stroke="null" id="svg_80" d="m9436.50074,5319.47995c-63.54766,-26.79175 -121.04316,-107.93247 -134.35791,-189.83867c-26.02428,-157.68857 98.65018,-315.37715 223.32463,-282.46157c93.80845,24.49531 166.43435,145.44092 157.35611,259.49722c-6.65737,80.37524 -54.46942,163.04692 -114.991,200.55537c-36.91816,22.19888 -93.80845,27.55723 -131.33183,12.24766z"/>
   <path stroke="null" id="svg_81" d="m10211.17698,5319.47995c-63.54766,-26.79175 -121.04316,-107.93247 -134.35791,-189.83867c-26.02428,-157.68857 98.65018,-315.37715 223.32463,-282.46157c93.80845,24.49531 166.43435,145.44092 157.35611,259.49722c-6.65737,80.37524 -54.46942,163.04692 -114.991,200.55537c-36.91816,22.19888 -93.80845,27.55723 -131.33183,12.24766z"/>
   <path stroke="null" id="svg_82" d="m3239.09083,4339.66744c-63.54766,-26.79175 -121.04316,-107.93247 -134.35791,-189.83867c-26.02428,-157.68857 98.65018,-315.37715 223.32463,-282.46157c93.80845,24.49531 166.43435,145.44092 157.35611,259.49722c-6.65737,80.37524 -54.46942,163.04692 -114.991,200.55537c-36.91816,22.19888 -93.80845,27.55723 -131.33183,12.24766z"/>
   <path stroke="null" id="svg_83" d="m4013.76706,4339.66744c-63.54766,-26.79175 -121.04316,-107.93247 -134.35791,-189.83867c-26.02428,-157.68857 98.65018,-315.37715 223.32463,-282.46157c93.80845,24.49531 166.43435,145.44092 157.35611,259.49722c-6.65737,80.37524 -54.46942,163.04692 -114.991,200.55537c-36.91816,22.19888 -93.80845,27.55723 -131.33183,12.24766z"/>
   <path stroke="null" id="svg_84" d="m4788.4433,4339.66744c-63.54766,-26.79175 -121.04316,-107.93247 -134.35791,-189.83867c-15.1304,-89.56099 19.36691,-186.77676 85.94065,-244.18765c64.75809,-56.64541 138.59442,-57.41089 203.95773,-2.29644c107.1232,90.32646 121.64838,258.73174 32.07644,371.25708c-51.44334,65.83115 -125.27967,91.09194 -187.6169,65.06567z"/>
   <path stroke="null" id="svg_85" d="m5563.11954,4339.66744c-63.54766,-26.79175 -121.04316,-107.93247 -134.35791,-189.83867c-15.1304,-89.56099 19.36691,-186.77676 85.94065,-244.18765c64.75809,-56.64541 138.59442,-57.41089 203.95773,-2.29644c107.1232,90.32646 121.64838,258.73174 32.07644,371.25708c-51.44334,65.83115 -125.27967,91.09194 -187.6169,65.06567z"/>
   <path stroke="null" id="svg_86" d="m6337.79578,4339.66744c-63.54766,-26.79175 -121.04316,-107.93247 -134.35791,-189.83867c-26.02428,-157.68857 98.65018,-315.37715 223.32463,-282.46157c93.80845,24.49531 166.43435,145.44092 157.35611,259.49722c-6.65737,80.37524 -54.46942,163.04692 -114.991,200.55537c-36.91816,22.19888 -93.80845,27.55723 -131.33183,12.24766z"/>
   <path stroke="null" id="svg_87" d="m7112.47202,4339.66744c-63.54766,-26.79175 -121.04316,-107.93247 -134.35791,-189.83867c-26.02428,-157.68857 98.65018,-315.37715 223.32463,-282.46157c93.80845,24.49531 166.43435,145.44092 157.35611,259.49722c-6.65737,80.37524 -54.46942,163.04692 -114.991,200.55537c-36.91816,22.19888 -93.80845,27.55723 -131.33183,12.24766z"/>
   <path stroke="null" id="svg_88" d="m7887.14826,4339.66744c-63.54766,-26.79175 -121.04316,-107.93247 -134.35791,-189.83867c-26.02428,-157.68857 98.65018,-315.37715 223.32463,-282.46157c93.80845,24.49531 166.43435,145.44092 157.35611,259.49722c-6.65737,80.37524 -54.46942,163.04692 -114.991,200.55537c-36.91816,22.19888 -93.80845,27.55723 -131.33183,12.24766z"/>
   <path stroke="null" id="svg_89" d="m8661.8245,4339.66744c-63.54766,-26.79175 -121.04316,-107.93247 -134.35791,-189.83867c-26.02428,-157.68857 98.65018,-315.37715 223.32463,-282.46157c93.80845,24.49531 166.43435,145.44092 157.35611,259.49722c-6.65737,80.37524 -54.46942,163.04692 -114.991,200.55537c-36.91816,22.19888 -93.80845,27.55723 -131.33183,12.24766z"/>
   <path stroke="null" id="svg_90" d="m9436.50074,4339.66744c-63.54766,-26.79175 -121.04316,-107.93247 -134.35791,-189.83867c-26.02428,-157.68857 98.65018,-315.37715 223.32463,-282.46157c93.80845,24.49531 166.43435,145.44092 157.35611,259.49722c-6.65737,80.37524 -54.46942,163.04692 -114.991,200.55537c-36.91816,22.19888 -93.80845,27.55723 -131.33183,12.24766z"/>
   <path stroke="null" id="svg_91" d="m10211.17698,4339.66744c-63.54766,-26.79175 -121.04316,-107.93247 -134.35791,-189.83867c-26.02428,-157.68857 98.65018,-315.37715 223.32463,-282.46157c93.80845,24.49531 166.43435,145.44092 157.35611,259.49722c-6.65737,80.37524 -54.46942,163.04692 -114.991,200.55537c-36.91816,22.19888 -93.80845,27.55723 -131.33183,12.24766z"/>
   <path stroke="null" id="svg_92" d="m3239.09083,3359.85494c-63.54766,-26.79175 -121.04316,-107.93247 -134.35791,-189.83867c-26.02428,-157.68857 98.65018,-315.37715 223.32463,-282.46157c93.80845,24.49531 166.43435,145.44092 157.35611,259.49722c-6.65737,80.37524 -54.46942,163.04692 -114.991,200.55537c-36.91816,22.19888 -93.80845,27.55723 -131.33183,12.24766z"/>
   <path stroke="null" id="svg_93" d="m4013.76706,3359.85494c-63.54766,-26.79175 -121.04316,-107.93247 -134.35791,-189.83867c-26.02428,-157.68857 98.65018,-315.37715 223.32463,-282.46157c93.80845,24.49531 166.43435,145.44092 157.35611,259.49722c-6.65737,80.37524 -54.46942,163.04692 -114.991,200.55537c-36.91816,22.19888 -93.80845,27.55723 -131.33183,12.24766z"/>
   <path stroke="null" id="svg_94" d="m4788.4433,3359.85494c-63.54766,-26.79175 -121.04316,-107.93247 -134.35791,-189.83867c-26.02428,-157.68857 98.65018,-315.37715 223.32463,-282.46157c93.80845,24.49531 166.43435,145.44092 157.35611,259.49722c-6.65737,80.37524 -54.46942,163.04692 -114.991,200.55537c-36.91816,22.19888 -93.80845,27.55723 -131.33183,12.24766z"/>
   <path stroke="null" id="svg_95" d="m5563.11954,3359.85494c-63.54766,-26.79175 -121.04316,-107.93247 -134.35791,-189.83867c-26.02428,-157.68857 98.65018,-315.37715 223.32463,-282.46157c93.80845,24.49531 166.43435,145.44092 157.35611,259.49722c-6.65737,80.37524 -54.46942,163.04692 -114.991,200.55537c-36.91816,22.19888 -93.80845,27.55723 -131.33183,12.24766z"/>
   <path stroke="null" id="svg_96" d="m6337.79578,3359.85494c-63.54766,-26.79175 -121.04316,-107.93247 -134.35791,-189.83867c-26.02428,-157.68857 98.65018,-315.37715 223.32463,-282.46157c93.80845,24.49531 166.43435,145.44092 157.35611,259.49722c-6.65737,80.37524 -54.46942,163.04692 -114.991,200.55537c-36.91816,22.19888 -93.80845,27.55723 -131.33183,12.24766z"/>
   <path stroke="null" id="svg_97" d="m7112.47202,3359.85494c-63.54766,-26.79175 -121.04316,-107.93247 -134.35791,-189.83867c-26.02428,-157.68857 98.65018,-315.37715 223.32463,-282.46157c93.80845,24.49531 166.43435,145.44092 157.35611,259.49722c-6.65737,80.37524 -54.46942,163.04692 -114.991,200.55537c-36.91816,22.19888 -93.80845,27.55723 -131.33183,12.24766z"/>
   <path stroke="null" id="svg_98" d="m7887.14826,3359.85494c-63.54766,-26.79175 -121.04316,-107.93247 -134.35791,-189.83867c-26.02428,-157.68857 98.65018,-315.37715 223.32463,-282.46157c93.80845,24.49531 166.43435,145.44092 157.35611,259.49722c-6.65737,80.37524 -54.46942,163.04692 -114.991,200.55537c-36.91816,22.19888 -93.80845,27.55723 -131.33183,12.24766z"/>
   <path stroke="null" id="svg_99" d="m8661.8245,3359.85494c-63.54766,-26.79175 -121.04316,-107.93247 -134.35791,-189.83867c-26.02428,-157.68857 98.65018,-315.37715 223.32463,-282.46157c93.80845,24.49531 166.43435,145.44092 157.35611,259.49722c-6.65737,80.37524 -54.46942,163.04692 -114.991,200.55537c-36.91816,22.19888 -93.80845,27.55723 -131.33183,12.24766z"/>
   <path stroke="null" id="svg_100" d="m9436.50074,3359.85494c-63.54766,-26.79175 -121.04316,-107.93247 -134.35791,-189.83867c-26.02428,-157.68857 98.65018,-315.37715 223.32463,-282.46157c93.80845,24.49531 166.43435,145.44092 157.35611,259.49722c-6.65737,80.37524 -54.46942,163.04692 -114.991,200.55537c-36.91816,22.19888 -93.80845,27.55723 -131.33183,12.24766z"/>
   <path stroke="null" id="svg_101" d="m10211.17698,3359.85494c-63.54766,-26.79175 -121.04316,-107.93247 -134.35791,-189.83867c-26.02428,-157.68857 98.65018,-315.37715 223.32463,-282.46157c93.80845,24.49531 166.43435,145.44092 157.35611,259.49722c-6.65737,80.37524 -54.46942,163.04692 -114.991,200.55537c-36.91816,22.19888 -93.80845,27.55723 -131.33183,12.24766z"/>
  </g>
  <g stroke="null" id="svg_202" fill="#000000" transform="rotate(-42.5317 -26.2093 -115.627) translate(-322 -235) translate(0 1280) scale(0.1 -0.1)">
   <path stroke="null" id="svg_102" d="m-475.93991,16112.61051c-61.63038,-26.0062 -117.3912,-104.76785 -130.30423,-184.27253c-25.23911,-153.0651 95.67383,-306.13018 216.58677,-274.1797c90.97818,23.7771 161.41289,141.17654 152.60856,251.88867c-6.45652,78.01861 -52.82605,158.26633 -111.52165,194.67502c-35.80431,21.54799 -90.97818,26.74924 -127.36945,11.88854z"/>
   <path stroke="null" id="svg_103" d="m275.36378,16112.61051c-88.63036,-37.15171 -148.49987,-160.49543 -130.30423,-268.97846c14.6739,-88.4211 79.82602,-170.89791 149.08683,-189.47377c113.86946,-30.46442 231.84762,105.51088 220.1085,251.88867c-6.45652,78.01861 -52.82605,158.26633 -111.52165,194.67502c-35.80431,21.54799 -90.97818,26.74924 -127.36945,11.88854z"/>
   <path stroke="null" id="svg_104" d="m1026.66746,16112.61051c-61.63038,-26.0062 -117.3912,-104.76785 -130.30423,-184.27253c-25.23911,-153.0651 95.67383,-306.13018 216.58676,-274.1797c90.97819,23.7771 161.4129,141.17654 152.60857,251.88867c-6.45652,78.01861 -52.82605,158.26633 -111.52165,194.67502c-35.80431,21.54799 -90.97818,26.74924 -127.36945,11.88854z"/>
   <path stroke="null" id="svg_105" d="m1777.97115,16112.61051c-61.63038,-26.0062 -117.3912,-104.76785 -130.30423,-184.27253c-25.23911,-153.0651 95.67383,-306.13018 216.58676,-274.1797c90.97818,23.7771 161.4129,141.17654 152.60856,251.88867c-6.45651,78.01861 -52.82604,158.26633 -111.52164,194.67502c-35.80431,21.54799 -90.97818,26.74924 -127.36945,11.88854z"/>
   <path stroke="null" id="svg_106" d="m2529.27483,16112.61051c-61.63038,-26.0062 -117.3912,-104.76785 -130.30423,-184.27253c-25.23911,-153.0651 95.67383,-306.13018 216.58676,-274.1797c90.97818,23.7771 161.4129,141.17654 152.60856,251.88867c-6.45651,78.01861 -52.82604,158.26633 -111.52164,194.67502c-35.80431,21.54799 -90.97818,26.74924 -127.36945,11.88854z"/>
   <path stroke="null" id="svg_107" d="m3280.57852,16112.61051c-61.63038,-26.0062 -117.3912,-104.76785 -130.30423,-184.27253c-25.23911,-153.0651 95.67382,-306.13018 216.58676,-274.1797c90.97818,23.7771 161.4129,141.17654 152.60856,251.88867c-6.45651,78.01861 -52.82604,158.26633 -111.52164,194.67502c-35.80432,21.54799 -90.97818,26.74924 -127.36945,11.88854z"/>
   <path stroke="null" id="svg_108" d="m4031.8822,16112.61051c-61.63038,-26.0062 -117.39121,-104.76785 -130.30423,-184.27253c-25.23911,-153.0651 95.67382,-306.13018 216.58676,-274.1797c90.97818,23.7771 161.4129,141.17654 152.60856,251.88867c-6.45651,78.01861 -52.82604,158.26633 -111.52164,194.67502c-35.80432,21.54799 -90.97818,26.74924 -127.36945,11.88854z"/>
   <path stroke="null" id="svg_109" d="m4783.18589,16112.61051c-61.63038,-26.0062 -117.39121,-104.76785 -130.30423,-184.27253c-25.23911,-153.0651 95.67382,-306.13018 216.58676,-274.1797c90.97818,23.7771 161.4129,141.17654 152.60856,251.88867c-6.45651,78.01861 -52.82604,158.26633 -111.52164,194.67502c-35.80432,21.54799 -90.97818,26.74924 -127.36945,11.88854z"/>
   <path stroke="null" id="svg_110" d="m5534.48958,16112.61051c-61.63038,-26.0062 -117.39121,-104.76785 -130.30423,-184.27253c-14.6739,-86.93503 18.78259,-181.3004 83.34775,-237.02797c62.80429,-54.98455 134.41292,-55.72759 197.80417,-2.2291c103.89121,87.67806 117.97816,251.14562 31.10867,360.37168c-49.89127,63.90096 -121.4999,88.4211 -181.95636,63.15792z"/>
   <path stroke="null" id="svg_111" d="m6285.79325,16112.61051c-61.63038,-26.0062 -117.3912,-104.76785 -130.30423,-184.27253c-14.67389,-86.93503 18.7826,-181.3004 83.34776,-237.02797c62.80429,-54.98455 134.41292,-55.72759 197.80417,-2.2291c103.89121,87.67806 117.97816,251.14562 31.10867,360.37168c-49.89127,63.90096 -121.4999,88.4211 -181.95637,63.15792z"/>
   <path stroke="null" id="svg_112" d="m-475.93991,15161.52647c-61.63038,-26.00621 -117.3912,-104.76785 -130.30423,-184.27254c-25.23911,-153.06509 95.67383,-306.13017 216.58677,-274.1797c90.97818,23.77711 161.41289,141.17654 152.60856,251.88867c-6.45652,78.01862 -52.82605,158.26633 -111.52165,194.67502c-35.80431,21.54799 -90.97818,26.74924 -127.36945,11.88855z"/>
   <path stroke="null" id="svg_113" d="m275.36378,15161.52647c-88.63036,-37.15172 -148.49987,-160.49543 -130.30423,-268.97846c14.6739,-88.4211 79.82602,-170.89792 149.08683,-189.47378c113.86946,-30.46441 231.84762,105.51089 220.1085,251.88867c-6.45652,78.01862 -52.82605,158.26633 -111.52165,194.67502c-35.80431,21.54799 -90.97818,26.74924 -127.36945,11.88855z"/>
   <path stroke="null" id="svg_114" d="m1026.66746,15161.52647c-61.63038,-26.00621 -117.3912,-104.76785 -130.30423,-184.27254c-25.23911,-153.06509 95.67383,-306.13017 216.58676,-274.1797c90.97819,23.77711 161.4129,141.17654 152.60857,251.88867c-6.45652,78.01862 -52.82605,158.26633 -111.52165,194.67502c-35.80431,21.54799 -90.97818,26.74924 -127.36945,11.88855z"/>
   <path stroke="null" id="svg_115" d="m1777.97115,15161.52647c-61.63038,-26.00621 -117.3912,-104.76785 -130.30423,-184.27254c-25.23911,-153.06509 95.67383,-306.13017 216.58676,-274.1797c90.97818,23.77711 161.4129,141.17654 152.60856,251.88867c-6.45651,78.01862 -52.82604,158.26633 -111.52164,194.67502c-35.80431,21.54799 -90.97818,26.74924 -127.36945,11.88855z"/>
   <path stroke="null" id="svg_116" d="m2529.27483,15161.52647c-61.63038,-26.00621 -117.3912,-104.76785 -130.30423,-184.27254c-25.23911,-153.06509 95.67383,-306.13017 216.58676,-274.1797c90.97818,23.77711 161.4129,141.17654 152.60856,251.88867c-6.45651,78.01862 -52.82604,158.26633 -111.52164,194.67502c-35.80431,21.54799 -90.97818,26.74924 -127.36945,11.88855z"/>
   <path stroke="null" id="svg_117" d="m3280.57852,15161.52647c-61.63038,-26.00621 -117.3912,-104.76785 -130.30423,-184.27254c-25.23911,-153.06509 95.67382,-306.13017 216.58676,-274.1797c90.97818,23.77711 161.4129,141.17654 152.60856,251.88867c-6.45651,78.01862 -52.82604,158.26633 -111.52164,194.67502c-35.80432,21.54799 -90.97818,26.74924 -127.36945,11.88855z"/>
   <path stroke="null" id="svg_118" d="m4031.8822,15161.52647c-61.63038,-26.00621 -117.39121,-104.76785 -130.30423,-184.27254c-25.23911,-153.06509 95.67382,-306.13017 216.58676,-274.1797c90.97818,23.77711 161.4129,141.17654 152.60856,251.88867c-6.45651,78.01862 -52.82604,158.26633 -111.52164,194.67502c-35.80432,21.54799 -90.97818,26.74924 -127.36945,11.88855z"/>
   <path stroke="null" id="svg_119" d="m4783.18589,15161.52647c-61.63038,-26.00621 -117.39121,-104.76785 -130.30423,-184.27254c-25.23911,-153.06509 95.67382,-306.13017 216.58676,-274.1797c90.97818,23.77711 161.4129,141.17654 152.60856,251.88867c-6.45651,78.01862 -52.82604,158.26633 -111.52164,194.67502c-35.80432,21.54799 -90.97818,26.74924 -127.36945,11.88855z"/>
   <path stroke="null" id="svg_120" d="m5534.48958,15161.52647c-61.63038,-26.00621 -117.39121,-104.76785 -130.30423,-184.27254c-14.6739,-86.93502 18.78259,-181.3004 83.34775,-237.02797c62.80429,-54.98455 134.41292,-55.72758 197.80417,-2.2291c103.89121,87.67806 117.97816,251.14563 31.10867,360.37169c-49.89127,63.90095 -121.4999,88.4211 -181.95636,63.15792z"/>
   <path stroke="null" id="svg_121" d="m6285.79325,15161.52647c-61.63038,-26.00621 -117.3912,-104.76785 -130.30423,-184.27254c-14.67389,-86.93502 18.7826,-181.3004 83.34776,-237.02797c62.80429,-54.98455 134.41292,-55.72758 197.80417,-2.2291c103.89121,87.67806 117.97816,251.14563 31.10867,360.37169c-49.89127,63.90095 -121.4999,88.4211 -181.95637,63.15792z"/>
   <path stroke="null" id="svg_122" d="m-475.93991,14210.44242c-61.63038,-26.0062 -117.3912,-104.76785 -130.30423,-184.27253c-25.23911,-153.0651 95.67383,-306.13018 216.58677,-274.1797c90.97818,23.7771 161.41289,141.17654 152.60856,251.88867c-6.45652,78.01861 -52.82605,158.26633 -111.52165,194.67502c-35.80431,21.54799 -90.97818,26.74924 -127.36945,11.88854z"/>
   <path stroke="null" id="svg_123" d="m275.36378,14210.44242c-61.63038,-26.0062 -117.3912,-104.76785 -130.30423,-184.27253c-25.23911,-153.0651 95.67383,-306.13018 216.58676,-274.1797c90.97819,23.7771 161.4129,141.17654 152.60857,251.88867c-6.45652,78.01861 -52.82605,158.26633 -111.52165,194.67502c-35.80431,21.54799 -90.97818,26.74924 -127.36945,11.88854z"/>
   <path stroke="null" id="svg_124" d="m1026.66746,14210.44242c-61.63038,-26.0062 -117.3912,-104.76785 -130.30423,-184.27253c-25.23911,-153.0651 95.67383,-306.13018 216.58676,-274.1797c90.97819,23.7771 161.4129,141.17654 152.60857,251.88867c-6.45652,78.01861 -52.82605,158.26633 -111.52165,194.67502c-35.80431,21.54799 -90.97818,26.74924 -127.36945,11.88854z"/>
   <path stroke="null" id="svg_125" d="m1777.97115,14210.44242c-61.63038,-26.0062 -117.3912,-104.76785 -130.30423,-184.27253c-25.23911,-153.0651 95.67383,-306.13018 216.58676,-274.1797c90.97818,23.7771 161.4129,141.17654 152.60856,251.88867c-6.45651,78.01861 -52.82604,158.26633 -111.52164,194.67502c-35.80431,21.54799 -90.97818,26.74924 -127.36945,11.88854z"/>
   <path stroke="null" id="svg_126" d="m2529.27483,14210.44242c-61.63038,-26.0062 -117.3912,-104.76785 -130.30423,-184.27253c-25.23911,-153.0651 95.67383,-306.13018 216.58676,-274.1797c90.97818,23.7771 161.4129,141.17654 152.60856,251.88867c-6.45651,78.01861 -52.82604,158.26633 -111.52164,194.67502c-35.80431,21.54799 -90.97818,26.74924 -127.36945,11.88854z"/>
   <path stroke="null" id="svg_127" d="m3280.57852,14210.44242c-61.63038,-26.0062 -117.3912,-104.76785 -130.30423,-184.27253c-25.23911,-153.0651 95.67382,-306.13018 216.58676,-274.1797c90.97818,23.7771 161.4129,141.17654 152.60856,251.88867c-6.45651,78.01861 -52.82604,158.26633 -111.52164,194.67502c-35.80432,21.54799 -90.97818,26.74924 -127.36945,11.88854z"/>
   <path stroke="null" id="svg_128" d="m4031.8822,14210.44242c-61.63038,-26.0062 -117.39121,-104.76785 -130.30423,-184.27253c-25.23911,-153.0651 95.67382,-306.13018 216.58676,-274.1797c90.97818,23.7771 161.4129,141.17654 152.60856,251.88867c-6.45651,78.01861 -52.82604,158.26633 -111.52164,194.67502c-35.80432,21.54799 -90.97818,26.74924 -127.36945,11.88854z"/>
   <path stroke="null" id="svg_129" d="m4783.18589,14210.44242c-61.63038,-26.0062 -117.39121,-104.76785 -130.30423,-184.27253c-25.23911,-153.0651 95.67382,-306.13018 216.58676,-274.1797c90.97818,23.7771 161.4129,141.17654 152.60856,251.88867c-6.45651,78.01861 -52.82604,158.26633 -111.52164,194.67502c-35.80432,21.54799 -90.97818,26.74924 -127.36945,11.88854z"/>
   <path stroke="null" id="svg_130" d="m5534.48958,14210.44242c-61.63038,-26.0062 -117.39121,-104.76785 -130.30423,-184.27253c-25.23911,-153.0651 95.67382,-306.13018 216.58676,-274.1797c90.97818,23.7771 161.4129,141.17654 152.60856,251.88867c-6.45651,78.01861 -52.82604,158.26633 -111.52164,194.67502c-35.80432,21.54799 -90.97818,26.74924 -127.36945,11.88854z"/>
   <path stroke="null" id="svg_131" d="m6285.79325,14210.44242c-61.63038,-26.0062 -117.3912,-104.76785 -130.30423,-184.27253c-25.23911,-153.0651 95.67383,-306.13018 216.58677,-274.1797c90.97818,23.7771 161.4129,141.17654 152.60856,251.88867c-6.45651,78.01861 -52.82604,158.26633 -111.52164,194.67502c-35.80432,21.54799 -90.97818,26.74924 -127.36946,11.88854z"/>
   <path stroke="null" id="svg_132" d="m-475.93991,13259.35838c-61.63038,-26.00621 -117.3912,-104.76785 -130.30423,-184.27254c-25.23911,-153.06509 95.67383,-306.13017 216.58677,-274.1797c90.97818,23.77711 161.41289,141.17654 152.60856,251.88867c-6.45652,78.01862 -52.82605,158.26633 -111.52165,194.67502c-35.80431,21.548 -90.97818,26.74924 -127.36945,11.88855z"/>
   <path stroke="null" id="svg_133" d="m275.36378,13259.35838c-61.63038,-26.00621 -117.3912,-104.76785 -130.30423,-184.27254c-25.23911,-153.06509 95.67383,-306.13017 216.58676,-274.1797c90.97819,23.77711 161.4129,141.17654 152.60857,251.88867c-6.45652,78.01862 -52.82605,158.26633 -111.52165,194.67502c-35.80431,21.548 -90.97818,26.74924 -127.36945,11.88855z"/>
   <path stroke="null" id="svg_134" d="m1026.66746,13259.35838c-61.63038,-26.00621 -117.3912,-104.76785 -130.30423,-184.27254c-25.23911,-153.06509 95.67383,-306.13017 216.58676,-274.1797c90.97819,23.77711 161.4129,141.17654 152.60857,251.88867c-6.45652,78.01862 -52.82605,158.26633 -111.52165,194.67502c-35.80431,21.548 -90.97818,26.74924 -127.36945,11.88855z"/>
   <path stroke="null" id="svg_135" d="m1777.97115,13259.35838c-61.63038,-26.00621 -117.3912,-104.76785 -130.30423,-184.27254c-25.23911,-153.06509 95.67383,-306.13017 216.58676,-274.1797c90.97818,23.77711 161.4129,141.17654 152.60856,251.88867c-6.45651,78.01862 -52.82604,158.26633 -111.52164,194.67502c-35.80431,21.548 -90.97818,26.74924 -127.36945,11.88855z"/>
   <path stroke="null" id="svg_136" d="m2529.27483,13259.35838c-61.63038,-26.00621 -117.3912,-104.76785 -130.30423,-184.27254c-25.23911,-153.06509 95.67383,-306.13017 216.58676,-274.1797c90.97818,23.77711 161.4129,141.17654 152.60856,251.88867c-6.45651,78.01862 -52.82604,158.26633 -111.52164,194.67502c-35.80431,21.548 -90.97818,26.74924 -127.36945,11.88855z"/>
   <path stroke="null" id="svg_137" d="m3280.57852,13259.35838c-61.63038,-26.00621 -117.3912,-104.76785 -130.30423,-184.27254c-25.23911,-153.06509 95.67382,-306.13017 216.58676,-274.1797c90.97818,23.77711 161.4129,141.17654 152.60856,251.88867c-6.45651,78.01862 -52.82604,158.26633 -111.52164,194.67502c-35.80432,21.548 -90.97818,26.74924 -127.36945,11.88855z"/>
   <path stroke="null" id="svg_138" d="m4031.8822,13259.35838c-61.63038,-26.00621 -117.39121,-104.76785 -130.30423,-184.27254c-25.23911,-153.06509 95.67382,-306.13017 216.58676,-274.1797c90.97818,23.77711 161.4129,141.17654 152.60856,251.88867c-6.45651,78.01862 -52.82604,158.26633 -111.52164,194.67502c-35.80432,21.548 -90.97818,26.74924 -127.36945,11.88855z"/>
   <path stroke="null" id="svg_139" d="m4783.18589,13259.35838c-61.63038,-26.00621 -117.39121,-104.76785 -130.30423,-184.27254c-25.23911,-153.06509 95.67382,-306.13017 216.58676,-274.1797c90.97818,23.77711 161.4129,141.17654 152.60856,251.88867c-6.45651,78.01862 -52.82604,158.26633 -111.52164,194.67502c-35.80432,21.548 -90.97818,26.74924 -127.36945,11.88855z"/>
   <path stroke="null" id="svg_140" d="m5534.48958,13259.35838c-61.63038,-26.00621 -117.39121,-104.76785 -130.30423,-184.27254c-25.23911,-153.06509 95.67382,-306.13017 216.58676,-274.1797c90.97818,23.77711 161.4129,141.17654 152.60856,251.88867c-6.45651,78.01862 -52.82604,158.26633 -111.52164,194.67502c-35.80432,21.548 -90.97818,26.74924 -127.36945,11.88855z"/>
   <path stroke="null" id="svg_141" d="m6285.79325,13259.35838c-61.63038,-26.00621 -117.3912,-104.76785 -130.30423,-184.27254c-25.23911,-153.06509 95.67383,-306.13017 216.58677,-274.1797c90.97818,23.77711 161.4129,141.17654 152.60856,251.88867c-6.45651,78.01862 -52.82604,158.26633 -111.52164,194.67502c-35.80432,21.548 -90.97818,26.74924 -127.36946,11.88855z"/>
   <path stroke="null" id="svg_142" d="m-475.93991,12308.27433c-61.63038,-26.0062 -117.3912,-104.76785 -130.30423,-184.27253c-25.23911,-153.0651 95.67383,-306.13018 216.58677,-274.1797c90.97818,23.7771 161.41289,141.17654 152.60856,251.88867c-6.45652,78.01861 -52.82605,158.26633 -111.52165,194.67502c-35.80431,21.54799 -90.97818,26.74924 -127.36945,11.88854z"/>
   <path stroke="null" id="svg_143" d="m275.36378,12308.27433c-61.63038,-26.0062 -117.3912,-104.76785 -130.30423,-184.27253c-25.23911,-153.0651 95.67383,-306.13018 216.58676,-274.1797c90.97819,23.7771 161.4129,141.17654 152.60857,251.88867c-6.45652,78.01861 -52.82605,158.26633 -111.52165,194.67502c-35.80431,21.54799 -90.97818,26.74924 -127.36945,11.88854z"/>
   <path stroke="null" id="svg_144" d="m1026.66746,12308.27433c-61.63038,-26.0062 -117.3912,-104.76785 -130.30423,-184.27253c-25.23911,-153.0651 95.67383,-306.13018 216.58676,-274.1797c90.97819,23.7771 161.4129,141.17654 152.60857,251.88867c-6.45652,78.01861 -52.82605,158.26633 -111.52165,194.67502c-35.80431,21.54799 -90.97818,26.74924 -127.36945,11.88854z"/>
   <path stroke="null" id="svg_145" d="m1777.97115,12308.27433c-61.63038,-26.0062 -117.3912,-104.76785 -130.30423,-184.27253c-25.23911,-153.0651 95.67383,-306.13018 216.58676,-274.1797c90.97818,23.7771 161.4129,141.17654 152.60856,251.88867c-6.45651,78.01861 -52.82604,158.26633 -111.52164,194.67502c-35.80431,21.54799 -90.97818,26.74924 -127.36945,11.88854z"/>
   <path stroke="null" id="svg_146" d="m2529.27483,12308.27433c-61.63038,-26.0062 -117.3912,-104.76785 -130.30423,-184.27253c-25.23911,-153.0651 95.67383,-306.13018 216.58676,-274.1797c90.97818,23.7771 161.4129,141.17654 152.60856,251.88867c-6.45651,78.01861 -52.82604,158.26633 -111.52164,194.67502c-35.80431,21.54799 -90.97818,26.74924 -127.36945,11.88854z"/>
   <path stroke="null" id="svg_147" d="m3280.57852,12308.27433c-61.63038,-26.0062 -117.3912,-104.76785 -130.30423,-184.27253c-25.23911,-153.0651 95.67382,-306.13018 216.58676,-274.1797c90.97818,23.7771 161.4129,141.17654 152.60856,251.88867c-6.45651,78.01861 -52.82604,158.26633 -111.52164,194.67502c-35.80432,21.54799 -90.97818,26.74924 -127.36945,11.88854z"/>
   <path stroke="null" id="svg_148" d="m4031.8822,12308.27433c-61.63038,-26.0062 -117.39121,-104.76785 -130.30423,-184.27253c-25.23911,-153.0651 95.67382,-306.13018 216.58676,-274.1797c90.97818,23.7771 161.4129,141.17654 152.60856,251.88867c-6.45651,78.01861 -52.82604,158.26633 -111.52164,194.67502c-35.80432,21.54799 -90.97818,26.74924 -127.36945,11.88854z"/>
   <path stroke="null" id="svg_149" d="m4783.18589,12308.27433c-61.63038,-26.0062 -117.39121,-104.76785 -130.30423,-184.27253c-25.23911,-153.0651 95.67382,-306.13018 216.58676,-274.1797c90.97818,23.7771 161.4129,141.17654 152.60856,251.88867c-6.45651,78.01861 -52.82604,158.26633 -111.52164,194.67502c-35.80432,21.54799 -90.97818,26.74924 -127.36945,11.88854z"/>
   <path stroke="null" id="svg_150" d="m5534.48958,12308.27433c-61.63038,-26.0062 -117.39121,-104.76785 -130.30423,-184.27253c-25.23911,-153.0651 95.67382,-306.13018 216.58676,-274.1797c90.97818,23.7771 161.4129,141.17654 152.60856,251.88867c-6.45651,78.01861 -52.82604,158.26633 -111.52164,194.67502c-35.80432,21.54799 -90.97818,26.74924 -127.36945,11.88854z"/>
   <path stroke="null" id="svg_151" d="m6285.79325,12308.27433c-61.63038,-26.0062 -117.3912,-104.76785 -130.30423,-184.27253c-25.23911,-153.0651 95.67383,-306.13018 216.58677,-274.1797c90.97818,23.7771 161.4129,141.17654 152.60856,251.88867c-6.45651,78.01861 -52.82604,158.26633 -111.52164,194.67502c-35.80432,21.54799 -90.97818,26.74924 -127.36946,11.88854z"/>
   <path stroke="null" id="svg_152" d="m-475.93991,11357.19029c-61.63038,-26.00621 -117.3912,-104.76785 -130.30423,-184.27254c-25.23911,-153.06509 95.67383,-306.13017 216.58677,-274.17969c90.97818,23.7771 161.41289,141.17653 152.60856,251.88866c-6.45652,78.01862 -52.82605,158.26633 -111.52165,194.67502c-35.80431,21.548 -90.97818,26.74924 -127.36945,11.88855z"/>
   <path stroke="null" id="svg_153" d="m275.36378,11357.19029c-61.63038,-26.00621 -117.3912,-104.76785 -130.30423,-184.27254c-25.23911,-153.06509 95.67383,-306.13017 216.58676,-274.17969c90.97819,23.7771 161.4129,141.17653 152.60857,251.88866c-6.45652,78.01862 -52.82605,158.26633 -111.52165,194.67502c-35.80431,21.548 -90.97818,26.74924 -127.36945,11.88855z"/>
   <path stroke="null" id="svg_154" d="m1026.66746,11357.19029c-61.63038,-26.00621 -117.3912,-104.76785 -130.30423,-184.27254c-25.23911,-153.06509 95.67383,-306.13017 216.58676,-274.17969c90.97819,23.7771 161.4129,141.17653 152.60857,251.88866c-6.45652,78.01862 -52.82605,158.26633 -111.52165,194.67502c-35.80431,21.548 -90.97818,26.74924 -127.36945,11.88855z"/>
   <path stroke="null" id="svg_155" d="m1777.97115,11357.19029c-61.63038,-26.00621 -117.3912,-104.76785 -130.30423,-184.27254c-25.23911,-153.06509 95.67383,-306.13017 216.58676,-274.17969c90.97818,23.7771 161.4129,141.17653 152.60856,251.88866c-6.45651,78.01862 -52.82604,158.26633 -111.52164,194.67502c-35.80431,21.548 -90.97818,26.74924 -127.36945,11.88855z"/>
   <path stroke="null" id="svg_156" d="m2529.27483,11357.19029c-61.63038,-26.00621 -117.3912,-104.76785 -130.30423,-184.27254c-25.23911,-153.06509 95.67383,-306.13017 216.58676,-274.17969c90.97818,23.7771 161.4129,141.17653 152.60856,251.88866c-6.45651,78.01862 -52.82604,158.26633 -111.52164,194.67502c-35.80431,21.548 -90.97818,26.74924 -127.36945,11.88855z"/>
   <path stroke="null" id="svg_157" d="m3280.57852,11357.19029c-61.63038,-26.00621 -117.3912,-104.76785 -130.30423,-184.27254c-25.23911,-153.06509 95.67382,-306.13017 216.58676,-274.17969c90.97818,23.7771 161.4129,141.17653 152.60856,251.88866c-6.45651,78.01862 -52.82604,158.26633 -111.52164,194.67502c-35.80432,21.548 -90.97818,26.74924 -127.36945,11.88855z"/>
   <path stroke="null" id="svg_158" d="m4031.8822,11357.19029c-61.63038,-26.00621 -117.39121,-104.76785 -130.30423,-184.27254c-25.23911,-153.06509 95.67382,-306.13017 216.58676,-274.17969c90.97818,23.7771 161.4129,141.17653 152.60856,251.88866c-6.45651,78.01862 -52.82604,158.26633 -111.52164,194.67502c-35.80432,21.548 -90.97818,26.74924 -127.36945,11.88855z"/>
   <path stroke="null" id="svg_159" d="m4783.18589,11357.19029c-61.63038,-26.00621 -117.39121,-104.76785 -130.30423,-184.27254c-25.23911,-153.06509 95.67382,-306.13017 216.58676,-274.17969c90.97818,23.7771 161.4129,141.17653 152.60856,251.88866c-6.45651,78.01862 -52.82604,158.26633 -111.52164,194.67502c-35.80432,21.548 -90.97818,26.74924 -127.36945,11.88855z"/>
   <path stroke="null" id="svg_160" d="m5534.48958,11357.19029c-61.63038,-26.00621 -117.39121,-104.76785 -130.30423,-184.27254c-25.23911,-153.06509 95.67382,-306.13017 216.58676,-274.17969c90.97818,23.7771 161.4129,141.17653 152.60856,251.88866c-6.45651,78.01862 -52.82604,158.26633 -111.52164,194.67502c-35.80432,21.548 -90.97818,26.74924 -127.36945,11.88855z"/>
   <path stroke="null" id="svg_161" d="m6285.79325,11357.19029c-61.63038,-26.00621 -117.3912,-104.76785 -130.30423,-184.27254c-25.23911,-153.06509 95.67383,-306.13017 216.58677,-274.17969c90.97818,23.7771 161.4129,141.17653 152.60856,251.88866c-6.45651,78.01862 -52.82604,158.26633 -111.52164,194.67502c-35.80432,21.548 -90.97818,26.74924 -127.36946,11.88855z"/>
   <path stroke="null" id="svg_162" d="m-475.93991,10406.10624c-61.63038,-26.0062 -117.3912,-104.76785 -130.30423,-184.27253c-25.23911,-153.0651 95.67383,-306.13018 216.58677,-274.1797c90.97818,23.77711 161.41289,141.17654 152.60856,251.88867c-6.45652,78.01861 -52.82605,158.26633 -111.52165,194.67502c-35.80431,21.54799 -90.97818,26.74924 -127.36945,11.88854z"/>
   <path stroke="null" id="svg_163" d="m275.36378,10406.10624c-61.63038,-26.0062 -117.3912,-104.76785 -130.30423,-184.27253c-25.23911,-153.0651 95.67383,-306.13018 216.58676,-274.1797c90.97819,23.77711 161.4129,141.17654 152.60857,251.88867c-6.45652,78.01861 -52.82605,158.26633 -111.52165,194.67502c-35.80431,21.54799 -90.97818,26.74924 -127.36945,11.88854z"/>
   <path stroke="null" id="svg_164" d="m1026.66746,10406.10624c-61.63038,-26.0062 -117.3912,-104.76785 -130.30423,-184.27253c-14.6739,-86.93503 18.7826,-181.3004 83.34775,-237.02797c62.8043,-54.98455 134.41293,-55.72759 197.80417,-2.2291c103.89121,87.67806 117.97816,251.14563 31.10867,360.37168c-49.89126,63.90096 -121.49989,88.4211 -181.95636,63.15792z"/>
   <path stroke="null" id="svg_165" d="m1777.97115,10406.10624c-61.63038,-26.0062 -117.3912,-104.76785 -130.30423,-184.27253c-14.6739,-86.93503 18.78259,-181.3004 83.34775,-237.02797c62.8043,-54.98455 134.41293,-55.72759 197.80417,-2.2291c103.89121,87.67806 117.97816,251.14563 31.10867,360.37168c-49.89126,63.90096 -121.49989,88.4211 -181.95636,63.15792z"/>
   <path stroke="null" id="svg_166" d="m2529.27483,10406.10624c-88.63036,-37.15171 -148.49987,-160.49543 -130.30423,-268.97846c14.67389,-88.4211 79.82602,-170.89791 149.67378,-189.47377c113.28251,-30.46441 231.26067,105.51088 219.52154,251.88867c-6.45651,78.01861 -52.82604,158.26633 -111.52164,194.67502c-35.80431,21.54799 -90.97818,26.74924 -127.36945,11.88854z"/>
   <path stroke="null" id="svg_167" d="m3280.57852,10406.10624c-88.63036,-37.15171 -148.49987,-160.49543 -130.30423,-268.97846c14.67389,-88.4211 79.82602,-170.89791 149.67378,-189.47377c113.28251,-30.46441 231.26067,105.51088 219.52154,251.88867c-6.45651,78.01861 -52.82604,158.26633 -111.52164,194.67502c-35.80432,21.54799 -90.97818,26.74924 -127.36945,11.88854z"/>
   <path stroke="null" id="svg_168" d="m4031.8822,10406.10624c-88.63036,-37.15171 -148.49987,-160.49543 -130.30423,-268.97846c14.67389,-88.4211 79.82602,-170.89791 149.67378,-189.47377c113.28251,-30.46441 231.26067,105.51088 219.52154,251.88867c-6.45651,78.01861 -52.82604,158.26633 -111.52164,194.67502c-35.80432,21.54799 -90.97818,26.74924 -127.36945,11.88854z"/>
   <path stroke="null" id="svg_169" d="m4783.18589,10406.10624c-88.63036,-37.15171 -148.49987,-160.49543 -130.30423,-268.97846c14.67389,-88.4211 79.82602,-170.89791 149.67378,-189.47377c113.28251,-30.46441 231.26067,105.51088 219.52154,251.88867c-6.45651,78.01861 -52.82604,158.26633 -111.52164,194.67502c-35.80432,21.54799 -90.97818,26.74924 -127.36945,11.88854z"/>
   <path stroke="null" id="svg_170" d="m5534.48958,10406.10624c-61.63038,-26.0062 -117.39121,-104.76785 -130.30423,-184.27253c-25.23911,-153.0651 95.67382,-306.13018 216.58676,-274.1797c90.97818,23.77711 161.4129,141.17654 152.60856,251.88867c-6.45651,78.01861 -52.82604,158.26633 -111.52164,194.67502c-35.80432,21.54799 -90.97818,26.74924 -127.36945,11.88854z"/>
   <path stroke="null" id="svg_171" d="m6285.79325,10406.10624c-61.63038,-26.0062 -117.3912,-104.76785 -130.30423,-184.27253c-25.23911,-153.0651 95.67383,-306.13018 216.58677,-274.1797c90.97818,23.77711 161.4129,141.17654 152.60856,251.88867c-6.45651,78.01861 -52.82604,158.26633 -111.52164,194.67502c-35.80432,21.54799 -90.97818,26.74924 -127.36946,11.88854z"/>
   <path stroke="null" id="svg_172" d="m-475.93991,9455.0222c-61.63038,-26.00621 -117.3912,-104.76785 -130.30423,-184.27254c-25.23911,-153.06509 95.67383,-306.13017 216.58677,-274.17969c90.97818,23.7771 161.41289,141.17653 152.60856,251.88866c-6.45652,78.01862 -52.82605,158.26633 -111.52165,194.67502c-35.80431,21.548 -90.97818,26.74924 -127.36945,11.88855z"/>
   <path stroke="null" id="svg_173" d="m275.36378,9455.0222c-61.63038,-26.00621 -117.3912,-104.76785 -130.30423,-184.27254c-25.23911,-153.06509 95.67383,-306.13017 216.58676,-274.17969c90.97819,23.7771 161.4129,141.17653 152.60857,251.88866c-6.45652,78.01862 -52.82605,158.26633 -111.52165,194.67502c-35.80431,21.548 -90.97818,26.74924 -127.36945,11.88855z"/>
   <path stroke="null" id="svg_174" d="m1026.66746,9455.0222c-61.63038,-26.00621 -117.3912,-104.76785 -130.30423,-184.27254c-14.6739,-86.93502 18.7826,-181.3004 83.34775,-237.02797c62.8043,-54.98455 134.41293,-55.72758 197.80417,-2.2291c103.89121,87.67806 117.97816,251.14563 31.10867,360.37169c-49.89126,63.90096 -121.49989,88.4211 -181.95636,63.15792z"/>
   <path stroke="null" id="svg_175" d="m1777.97115,9455.0222c-61.63038,-26.00621 -117.3912,-104.76785 -130.30423,-184.27254c-14.6739,-86.93502 18.78259,-181.3004 83.34775,-237.02797c62.8043,-54.98455 134.41293,-55.72758 197.80417,-2.2291c103.89121,87.67806 117.97816,251.14563 31.10867,360.37169c-49.89126,63.90096 -121.49989,88.4211 -181.95636,63.15792z"/>
   <path stroke="null" id="svg_176" d="m2529.27483,9455.0222c-88.63036,-37.15172 -148.49987,-160.49543 -130.30423,-268.97846c14.67389,-88.4211 79.82602,-170.89792 149.67378,-189.47377c113.28251,-30.46442 231.26067,105.51088 219.52154,251.88866c-6.45651,78.01862 -52.82604,158.26633 -111.52164,194.67502c-35.80431,21.548 -90.97818,26.74924 -127.36945,11.88855z"/>
   <path stroke="null" id="svg_177" d="m3280.57852,9455.0222c-88.63036,-37.15172 -148.49987,-160.49543 -130.30423,-268.97846c14.67389,-88.4211 79.82602,-170.89792 149.67378,-189.47377c113.28251,-30.46442 231.26067,105.51088 219.52154,251.88866c-6.45651,78.01862 -52.82604,158.26633 -111.52164,194.67502c-35.80432,21.548 -90.97818,26.74924 -127.36945,11.88855z"/>
   <path stroke="null" id="svg_178" d="m4031.8822,9455.0222c-88.63036,-37.15172 -148.49987,-160.49543 -130.30423,-268.97846c14.67389,-88.4211 79.82602,-170.89792 149.67378,-189.47377c113.28251,-30.46442 231.26067,105.51088 219.52154,251.88866c-6.45651,78.01862 -52.82604,158.26633 -111.52164,194.67502c-35.80432,21.548 -90.97818,26.74924 -127.36945,11.88855z"/>
   <path stroke="null" id="svg_179" d="m4783.18589,9455.0222c-88.63036,-37.15172 -148.49987,-160.49543 -130.30423,-268.97846c14.67389,-88.4211 79.82602,-170.89792 149.67378,-189.47377c113.28251,-30.46442 231.26067,105.51088 219.52154,251.88866c-6.45651,78.01862 -52.82604,158.26633 -111.52164,194.67502c-35.80432,21.548 -90.97818,26.74924 -127.36945,11.88855z"/>
   <path stroke="null" id="svg_180" d="m5534.48958,9455.0222c-61.63038,-26.00621 -117.39121,-104.76785 -130.30423,-184.27254c-25.23911,-153.06509 95.67382,-306.13017 216.58676,-274.17969c90.97818,23.7771 161.4129,141.17653 152.60856,251.88866c-6.45651,78.01862 -52.82604,158.26633 -111.52164,194.67502c-35.80432,21.548 -90.97818,26.74924 -127.36945,11.88855z"/>
   <path stroke="null" id="svg_181" d="m6285.79325,9455.0222c-61.63038,-26.00621 -117.3912,-104.76785 -130.30423,-184.27254c-25.23911,-153.06509 95.67383,-306.13017 216.58677,-274.17969c90.97818,23.7771 161.4129,141.17653 152.60856,251.88866c-6.45651,78.01862 -52.82604,158.26633 -111.52164,194.67502c-35.80432,21.548 -90.97818,26.74924 -127.36946,11.88855z"/>
   <path stroke="null" id="svg_182" d="m-475.93991,8503.93815c-61.63038,-26.0062 -117.3912,-104.76785 -130.30423,-184.27253c-25.23911,-153.06509 95.67383,-306.13018 216.58677,-274.1797c90.97818,23.77711 161.41289,141.17654 152.60856,251.88867c-6.45652,78.01861 -52.82605,158.26633 -111.52165,194.67502c-35.80431,21.54799 -90.97818,26.74924 -127.36945,11.88854z"/>
   <path stroke="null" id="svg_183" d="m275.36378,8503.93815c-61.63038,-26.0062 -117.3912,-104.76785 -130.30423,-184.27253c-25.23911,-153.06509 95.67383,-306.13018 216.58676,-274.1797c90.97819,23.77711 161.4129,141.17654 152.60857,251.88867c-6.45652,78.01861 -52.82605,158.26633 -111.52165,194.67502c-35.80431,21.54799 -90.97818,26.74924 -127.36945,11.88854z"/>
   <path stroke="null" id="svg_184" d="m1026.66746,8503.93815c-61.63038,-26.0062 -117.3912,-104.76785 -130.30423,-184.27253c-14.6739,-86.93503 18.7826,-181.3004 83.34775,-237.02797c62.8043,-54.98455 134.41293,-55.72759 197.80417,-2.2291c103.89121,87.67806 117.97816,251.14563 31.10867,360.37168c-49.89126,63.90096 -121.49989,88.4211 -181.95636,63.15792z"/>
   <path stroke="null" id="svg_185" d="m1777.97115,8503.93815c-61.63038,-26.0062 -117.3912,-104.76785 -130.30423,-184.27253c-14.6739,-86.93503 18.78259,-181.3004 83.34775,-237.02797c62.8043,-54.98455 134.41293,-55.72759 197.80417,-2.2291c103.89121,87.67806 117.97816,251.14563 31.10867,360.37168c-49.89126,63.90096 -121.49989,88.4211 -181.95636,63.15792z"/>
   <path stroke="null" id="svg_186" d="m2529.27483,8503.93815c-61.63038,-26.0062 -117.3912,-104.76785 -130.30423,-184.27253c-25.23911,-153.06509 95.67383,-306.13018 216.58676,-274.1797c90.97818,23.77711 161.4129,141.17654 152.60856,251.88867c-6.45651,78.01861 -52.82604,158.26633 -111.52164,194.67502c-35.80431,21.54799 -90.97818,26.74924 -127.36945,11.88854z"/>
   <path stroke="null" id="svg_187" d="m3280.57852,8503.93815c-61.63038,-26.0062 -117.3912,-104.76785 -130.30423,-184.27253c-25.23911,-153.06509 95.67382,-306.13018 216.58676,-274.1797c90.97818,23.77711 161.4129,141.17654 152.60856,251.88867c-6.45651,78.01861 -52.82604,158.26633 -111.52164,194.67502c-35.80432,21.54799 -90.97818,26.74924 -127.36945,11.88854z"/>
   <path stroke="null" id="svg_188" d="m4031.8822,8503.93815c-61.63038,-26.0062 -117.39121,-104.76785 -130.30423,-184.27253c-25.23911,-153.06509 95.67382,-306.13018 216.58676,-274.1797c90.97818,23.77711 161.4129,141.17654 152.60856,251.88867c-6.45651,78.01861 -52.82604,158.26633 -111.52164,194.67502c-35.80432,21.54799 -90.97818,26.74924 -127.36945,11.88854z"/>
   <path stroke="null" id="svg_189" d="m4783.18589,8503.93815c-61.63038,-26.0062 -117.39121,-104.76785 -130.30423,-184.27253c-25.23911,-153.06509 95.67382,-306.13018 216.58676,-274.1797c90.97818,23.77711 161.4129,141.17654 152.60856,251.88867c-6.45651,78.01861 -52.82604,158.26633 -111.52164,194.67502c-35.80432,21.54799 -90.97818,26.74924 -127.36945,11.88854z"/>
   <path stroke="null" id="svg_190" d="m5534.48958,8503.93815c-61.63038,-26.0062 -117.39121,-104.76785 -130.30423,-184.27253c-25.23911,-153.06509 95.67382,-306.13018 216.58676,-274.1797c90.97818,23.77711 161.4129,141.17654 152.60856,251.88867c-6.45651,78.01861 -52.82604,158.26633 -111.52164,194.67502c-35.80432,21.54799 -90.97818,26.74924 -127.36945,11.88854z"/>
   <path stroke="null" id="svg_191" d="m6285.79325,8503.93815c-61.63038,-26.0062 -117.3912,-104.76785 -130.30423,-184.27253c-25.23911,-153.06509 95.67383,-306.13018 216.58677,-274.1797c90.97818,23.77711 161.4129,141.17654 152.60856,251.88867c-6.45651,78.01861 -52.82604,158.26633 -111.52164,194.67502c-35.80432,21.54799 -90.97818,26.74924 -127.36946,11.88854z"/>
   <path stroke="null" id="svg_192" d="m-475.93991,7552.85411c-61.63038,-26.00621 -117.3912,-104.76785 -130.30423,-184.27254c-25.23911,-153.06509 95.67383,-306.13017 216.58677,-274.17969c90.97818,23.7771 161.41289,141.17653 152.60856,251.88866c-6.45652,78.01862 -52.82605,158.26633 -111.52165,194.67502c-35.80431,21.548 -90.97818,26.74924 -127.36945,11.88855z"/>
   <path stroke="null" id="svg_193" d="m275.36378,7552.85411c-61.63038,-26.00621 -117.3912,-104.76785 -130.30423,-184.27254c-25.23911,-153.06509 95.67383,-306.13017 216.58676,-274.17969c90.97819,23.7771 161.4129,141.17653 152.60857,251.88866c-6.45652,78.01862 -52.82605,158.26633 -111.52165,194.67502c-35.80431,21.548 -90.97818,26.74924 -127.36945,11.88855z"/>
   <path stroke="null" id="svg_194" d="m1026.66746,7552.85411c-61.63038,-26.00621 -117.3912,-104.76785 -130.30423,-184.27254c-25.23911,-153.06509 95.67383,-306.13017 216.58676,-274.17969c90.97819,23.7771 161.4129,141.17653 152.60857,251.88866c-6.45652,78.01862 -52.82605,158.26633 -111.52165,194.67502c-35.80431,21.548 -90.97818,26.74924 -127.36945,11.88855z"/>
   <path stroke="null" id="svg_195" d="m1777.97115,7552.85411c-61.63038,-26.00621 -117.3912,-104.76785 -130.30423,-184.27254c-25.23911,-153.06509 95.67383,-306.13017 216.58676,-274.17969c90.97818,23.7771 161.4129,141.17653 152.60856,251.88866c-6.45651,78.01862 -52.82604,158.26633 -111.52164,194.67502c-35.80431,21.548 -90.97818,26.74924 -127.36945,11.88855z"/>
   <path stroke="null" id="svg_196" d="m2529.27483,7552.85411c-61.63038,-26.00621 -117.3912,-104.76785 -130.30423,-184.27254c-25.23911,-153.06509 95.67383,-306.13017 216.58676,-274.17969c90.97818,23.7771 161.4129,141.17653 152.60856,251.88866c-6.45651,78.01862 -52.82604,158.26633 -111.52164,194.67502c-35.80431,21.548 -90.97818,26.74924 -127.36945,11.88855z"/>
   <path stroke="null" id="svg_197" d="m3280.57852,7552.85411c-61.63038,-26.00621 -117.3912,-104.76785 -130.30423,-184.27254c-25.23911,-153.06509 95.67382,-306.13017 216.58676,-274.17969c90.97818,23.7771 161.4129,141.17653 152.60856,251.88866c-6.45651,78.01862 -52.82604,158.26633 -111.52164,194.67502c-35.80432,21.548 -90.97818,26.74924 -127.36945,11.88855z"/>
   <path stroke="null" id="svg_198" d="m4031.8822,7552.85411c-61.63038,-26.00621 -117.39121,-104.76785 -130.30423,-184.27254c-25.23911,-153.06509 95.67382,-306.13017 216.58676,-274.17969c90.97818,23.7771 161.4129,141.17653 152.60856,251.88866c-6.45651,78.01862 -52.82604,158.26633 -111.52164,194.67502c-35.80432,21.548 -90.97818,26.74924 -127.36945,11.88855z"/>
   <path stroke="null" id="svg_199" d="m4783.18589,7552.85411c-61.63038,-26.00621 -117.39121,-104.76785 -130.30423,-184.27254c-25.23911,-153.06509 95.67382,-306.13017 216.58676,-274.17969c90.97818,23.7771 161.4129,141.17653 152.60856,251.88866c-6.45651,78.01862 -52.82604,158.26633 -111.52164,194.67502c-35.80432,21.548 -90.97818,26.74924 -127.36945,11.88855z"/>
   <path stroke="null" id="svg_200" d="m5534.48958,7552.85411c-61.63038,-26.00621 -117.39121,-104.76785 -130.30423,-184.27254c-25.23911,-153.06509 95.67382,-306.13017 216.58676,-274.17969c90.97818,23.7771 161.4129,141.17653 152.60856,251.88866c-6.45651,78.01862 -52.82604,158.26633 -111.52164,194.67502c-35.80432,21.548 -90.97818,26.74924 -127.36945,11.88855z"/>
   <path stroke="null" id="svg_201" d="m6285.79325,7552.85411c-61.63038,-26.00621 -117.3912,-104.76785 -130.30423,-184.27254c-25.23911,-153.06509 95.67383,-306.13017 216.58677,-274.17969c90.97818,23.7771 161.4129,141.17653 152.60856,251.88866c-6.45651,78.01862 -52.82604,158.26633 -111.52164,194.67502c-35.80432,21.548 -90.97818,26.74924 -127.36946,11.88855z"/>
  </g>
 </g>
</svg>