<svg xmlns="http://www.w3.org/2000/svg" version="1.1" xmlns:xlink="http://www.w3.org/1999/xlink" xmlns:svgjs="http://svgjs.com/svgjs" width="1440" height="200" preserveAspectRatio="none" viewBox="0 0 1440 200"><g mask="url(&quot;#SvgjsMask1039&quot;)" fill="none"><rect width="1440" height="200" x="0" y="0" fill="#0e2a47"></rect><path d="M40 200L240 0L453 0L253 200z" fill="url(#SvgjsLinearGradient1040)"></path><path d="M277.6 200L477.6 0L543.6 0L343.6 200z" fill="url(#SvgjsLinearGradient1040)"></path><path d="M485.20000000000005 200L685.2 0L916.2 0L716.2 200z" fill="url(#SvgjsLinearGradient1040)"></path><path d="M749.8000000000001 200L949.8000000000001 0L1098.3000000000002 0L898.3000000000001 200z" fill="url(#SvgjsLinearGradient1040)"></path><path d="M1405 200L1205 0L1031 0L1231 200z" fill="url(#SvgjsLinearGradient1041)"></path><path d="M1183.4 200L983.4000000000001 0L809.4000000000001 0L1009.4000000000001 200z" fill="url(#SvgjsLinearGradient1041)"></path><path d="M960.8 200L760.8 0L453.29999999999995 0L653.3 200z" fill="url(#SvgjsLinearGradient1041)"></path><path d="M726.1999999999999 200L526.1999999999999 0L229.19999999999993 0L429.19999999999993 200z" fill="url(#SvgjsLinearGradient1041)"></path><path d="M1258.635879646254 200L1440 18.635879646253983L1440 200z" fill="url(#SvgjsLinearGradient1040)"></path><path d="M0 200L181.36412035374602 200L 0 18.635879646253983z" fill="url(#SvgjsLinearGradient1041)"></path></g><defs><mask id="SvgjsMask1039"><rect width="1440" height="200" fill="#ffffff"></rect></mask><linearGradient x1="0%" y1="100%" x2="100%" y2="0%" id="SvgjsLinearGradient1040"><stop stop-color="rgba(15, 70, 185, 0.2)" offset="0"></stop><stop stop-opacity="0" stop-color="rgba(15, 70, 185, 0.2)" offset="0.66"></stop></linearGradient><linearGradient x1="100%" y1="100%" x2="0%" y2="0%" id="SvgjsLinearGradient1041"><stop stop-color="rgba(15, 70, 185, 0.2)" offset="0"></stop><stop stop-opacity="0" stop-color="rgba(15, 70, 185, 0.2)" offset="0.66"></stop></linearGradient></defs></svg>