<svg width="567" height="583" viewBox="0 0 567 583" fill="none" xmlns="http://www.w3.org/2000/svg">
<path fill-rule="evenodd" clip-rule="evenodd" d="M565.736 131.873C565.946 132.65 566.054 133.451 566.056 134.256V259.379C566.056 260.985 565.632 262.562 564.827 263.952C564.023 265.342 562.865 266.494 561.473 267.293L456.49 327.756V447.599C456.49 450.861 454.757 453.872 451.93 455.514L232.788 581.709C232.286 581.994 231.739 582.176 231.192 582.37C230.987 582.439 230.793 582.564 230.576 582.621C229.045 583.025 227.434 583.025 225.902 582.621C225.652 582.553 225.424 582.416 225.184 582.324C224.683 582.142 224.158 581.982 223.679 581.709L4.5828 455.514C3.19094 454.714 2.03445 453.561 1.22988 452.172C0.425316 450.782 0.00110283 449.205 0 447.599L0 72.2305C0 71.4094 0.114 70.6111 0.3192 69.8357C0.3876 69.5734 0.5472 69.3339 0.6384 69.0716C0.8094 68.5927 0.969 68.1023 1.2198 67.6575C1.3908 67.361 1.6416 67.1216 1.8468 66.8479C2.109 66.483 2.3484 66.1066 2.6562 65.7873C2.9184 65.525 3.2604 65.3312 3.5568 65.1031C3.8874 64.8294 4.1838 64.5329 4.56 64.3162H4.5714L114.125 1.21874C115.513 0.420252 117.085 0 118.685 0C120.286 0 121.858 0.420252 123.245 1.21874L232.799 64.3162H232.822C233.187 64.5443 233.495 64.8294 233.825 65.0917C234.122 65.3198 234.452 65.525 234.715 65.7759C235.034 66.1066 235.262 66.483 235.535 66.8479C235.729 67.1216 235.991 67.361 236.151 67.6575C236.413 68.1137 236.561 68.5927 236.744 69.0716C236.835 69.3339 236.995 69.5734 237.063 69.8471C237.273 70.6242 237.38 71.4255 237.382 72.2305V306.682L328.673 254.099V134.245C328.673 133.446 328.787 132.637 328.993 131.873C329.072 131.599 329.221 131.359 329.312 131.097C329.494 130.618 329.654 130.128 329.905 129.683C330.076 129.387 330.326 129.147 330.52 128.873C330.794 128.508 331.022 128.132 331.341 127.813C331.603 127.551 331.934 127.357 332.23 127.129C332.572 126.855 332.869 126.558 333.233 126.342H333.245L442.81 63.2443C444.197 62.4447 445.77 62.0238 447.37 62.0238C448.971 62.0238 450.543 62.4447 451.93 63.2443L561.484 126.342C561.872 126.57 562.168 126.855 562.51 127.117C562.795 127.345 563.126 127.551 563.388 127.801C563.707 128.132 563.935 128.508 564.209 128.873C564.414 129.147 564.665 129.387 564.824 129.683C565.087 130.128 565.235 130.618 565.417 131.097C565.52 131.359 565.668 131.599 565.736 131.873V131.873ZM547.793 254.099V150.05L509.455 172.128L456.49 202.633V306.682L547.804 254.099H547.793ZM438.239 442.319V338.202L386.141 367.966L237.371 452.902V558L438.239 442.319ZM18.2628 88.0248V442.319L219.108 557.989V452.914L114.182 393.511L114.148 393.488L114.103 393.465C113.749 393.26 113.453 392.964 113.122 392.713C112.837 392.485 112.507 392.302 112.256 392.051L112.233 392.017C111.937 391.732 111.731 391.379 111.481 391.059C111.253 390.751 110.979 390.489 110.797 390.17L110.785 390.135C110.58 389.793 110.455 389.383 110.306 388.995C110.158 388.653 109.964 388.334 109.873 387.969V387.957C109.759 387.524 109.736 387.068 109.691 386.623C109.645 386.281 109.554 385.939 109.554 385.597V385.574V140.608L56.601 110.091L18.2628 88.0362V88.0248ZM118.697 19.6702L27.417 72.2305L118.674 124.791L209.942 72.2191L118.674 19.6702H118.697ZM166.166 347.69L219.119 317.196V88.0248L180.781 110.103L127.817 140.608V369.78L166.166 347.69ZM447.37 81.6957L356.102 134.256L447.37 186.816L538.627 134.245L447.37 81.6957V81.6957ZM438.239 202.633L385.274 172.128L346.936 150.05V254.099L399.889 284.593L438.239 306.682V202.633ZM228.228 437.108L362.098 360.657L429.016 322.454L337.816 269.928L232.811 330.402L137.108 385.517L228.228 437.108V437.108Z" fill="#369CF0" fill-opacity="0.2"/>
</svg>
