<svg width="1920.0000000000002" height="700" xmlns="http://www.w3.org/2000/svg">
 <g>
  <title>Layer 1</title>
 </g>

 <g>
  <title>Layer 2</title>
  <path stroke="null" id="svg_1" d="m-8.00005,548.89076l80.50012,-79.55584c80.50012,-79.55584 241.50037,-238.66751 402.50062,-212.06602c161.00025,25.60703 322.00049,239.41334 483.00074,265.02038c161.00025,26.60148 322.00049,-132.51019 483.00074,-132.51019c161.00025,0 322.00049,159.11167 402.50062,238.66751l80.50012,79.55584l0,-716.00252l-80.50012,0c-80.50012,0 -241.50037,0 -402.50062,0c-161.00025,0 -322.00049,0 -483.00074,0c-161.00025,0 -322.00049,0 -483.00074,0c-161.00025,0 -322.00049,0 -402.50062,0l-80.50012,0l0,556.89085z" fill="#0099ff"/>
 </g>
</svg>