<svg width="18" height="14" viewBox="0 0 18 14" fill="none" xmlns="http://www.w3.org/2000/svg">
<path d="M16.7148 0.910156V1.86719C15.3607 2.36198 14.2995 3.14323 13.5312 4.21094C12.763 5.26562 12.3789 6.36589 12.3789 7.51172C12.3789 7.75911 12.418 7.94141 12.4961 8.05859C12.5482 8.13672 12.6068 8.17578 12.6719 8.17578C12.737 8.17578 12.8346 8.13021 12.9648 8.03906C13.3815 7.73958 13.9089 7.58984 14.5469 7.58984C15.2891 7.58984 15.9466 7.89583 16.5195 8.50781C17.0924 9.10677 17.3789 9.82292 17.3789 10.6562C17.3789 11.5286 17.0469 12.2969 16.3828 12.9609C15.7318 13.625 14.9375 13.957 14 13.957C12.9062 13.957 11.9622 13.5078 11.168 12.6094C10.3737 11.7109 9.97656 10.5065 9.97656 8.99609C9.97656 7.23828 10.5169 5.66276 11.5977 4.26953C12.6784 2.8763 14.3841 1.75651 16.7148 0.910156ZM7.32031 0.910156V1.86719C5.96615 2.36198 4.90495 3.14323 4.13672 4.21094C3.36849 5.26562 2.98438 6.36589 2.98438 7.51172C2.98438 7.75911 3.02344 7.94141 3.10156 8.05859C3.15365 8.13672 3.21224 8.17578 3.27734 8.17578C3.34245 8.17578 3.4401 8.13021 3.57031 8.03906C3.98698 7.73958 4.51432 7.58984 5.15234 7.58984C5.89453 7.58984 6.55208 7.89583 7.125 8.50781C7.69792 9.10677 7.98438 9.82292 7.98438 10.6562C7.98438 11.5286 7.65234 12.2969 6.98828 12.9609C6.33724 13.625 5.54297 13.957 4.60547 13.957C3.51172 13.957 2.56771 13.5078 1.77344 12.6094C0.979167 11.7109 0.582031 10.5065 0.582031 8.99609C0.582031 7.23828 1.1224 5.66276 2.20312 4.26953C3.28385 2.8763 4.98958 1.75651 7.32031 0.910156Z" fill="black"/>
</svg>
