<svg width="506" height="448" viewBox="0 0 506 448" fill="none" xmlns="http://www.w3.org/2000/svg">
<path d="M252.972 270.767C278.914 270.767 299.943 249.777 299.943 223.884C299.943 197.99 278.914 177 252.972 177C227.03 177 206 197.99 206 223.884C206 249.777 227.03 270.767 252.972 270.767Z" fill="#61DAFB" fill-opacity="0.08"/>
<path d="M253.043 319.947C392.243 319.947 505.087 276.942 505.087 223.893C505.087 170.844 392.243 127.839 253.043 127.839C113.844 127.839 1 170.844 1 223.893C1 276.942 113.844 319.947 253.043 319.947Z" stroke="#61DAFB" stroke-opacity="0.2"/>
<path d="M169.702 271.92C239.302 392.244 333.037 468.284 379.065 441.759C425.094 415.235 405.985 296.19 336.385 175.866C266.785 55.542 173.05 -20.4976 127.022 6.02701C80.9934 32.5516 100.102 151.596 169.702 271.92Z" stroke="#61DAFB" stroke-opacity="0.2"/>
<path d="M169.702 175.866C100.102 296.19 80.9933 415.235 127.022 441.759C173.05 468.284 266.785 392.244 336.385 271.92C405.985 151.596 425.094 32.5516 379.065 6.02702C333.037 -20.4976 239.302 55.542 169.702 175.866Z" stroke="#61DAFB" stroke-opacity="0.2"/>
</svg>
