<svg width="1440" height="210" xmlns="http://www.w3.org/2000/svg">
 <defs>
  <linearGradient spreadMethod="pad" y2="1" x2="1" y1="0.00079" x1="1" id="svg_7">
   <stop stop-opacity="0.99609" offset="0" stop-color="#0099ff"/>
   <stop offset="1" stop-opacity="0.99609" stop-color="#ffffff"/>
  </linearGradient>
 </defs>
 <g>
  <title>Layer 1</title>
  <rect id="svg_3" height="96" width="1487" y="-8" x="-34" stroke="null" fill="#0099ff"/>
  <path stroke="null" id="svg_1" d="m0,169.30001l0,-59.5l37.2075,0l0,71.4l37.2075,0l0,-59.5l37.30833,0l0,-11.9l37.2075,0l0,-23.8l37.2075,0l0,23.8l37.2075,0l0,59.5l37.30833,0l0,0l37.2075,0l0,-11.9l37.2075,0l0,47.6l37.2075,0l0,-95.2l37.30833,0l0,47.6l37.2075,0l0,-59.5l37.2075,0l0,35.7l37.2075,0l0,47.6l37.2075,0l0,-95.2l37.30833,0l0,83.3l37.2075,0l0,-47.6l37.2075,0l0,-11.9l37.2075,0l0,35.7l37.30833,0l0,-47.6l37.2075,0l0,95.2l37.2075,0l0,-47.6l37.2075,0l0,35.7l37.30833,0l0,11.9l37.2075,0l0,-83.3l37.2075,0l0,23.8l37.2075,0l0,-47.6l37.2075,0l0,47.6l37.30833,0l0,-11.9l37.2075,0l0,35.7l37.2075,0l0,-59.5l37.2075,0l0,47.6l37.30833,0l0,11.9l37.2075,0l0,-35.7l37.2075,0l0,23.8l37.2075,0l0,-47.6l37.30833,0l0,95.2l37.2075,0l0,-47.6l37.2075,0l0,-59.5l-37.2075,0l0,0l-37.2075,0l0,0l-37.30833,0l0,0l-37.2075,0l0,0l-37.2075,0l0,0l-37.2075,0l0,0l-37.30833,0l0,0l-37.2075,0l0,0l-37.2075,0l0,0l-37.2075,0l0,0l-37.30833,0l0,0l-37.2075,0l0,0l-37.2075,0l0,0l-37.2075,0l0,0l-37.2075,0l0,0l-37.30833,0l0,0l-37.2075,0l0,0l-37.2075,0l0,0l-37.2075,0l0,0l-37.30833,0l0,0l-37.2075,0l0,0l-37.2075,0l0,0l-37.2075,0l0,0l-37.30833,0l0,0l-37.2075,0l0,0l-37.2075,0l0,0l-37.2075,0l0,0l-37.2075,0l0,0l-37.30833,0l0,0l-37.2075,0l0,0l-37.2075,0l0,0l-37.2075,0l0,0l-37.30833,0l0,0l-37.2075,0l0,0l-37.2075,0l0,0l-37.2075,0l0,0l-37.30833,0l0,0l-37.2075,0l0,0l-37.2075,0l0,0l0,83.3z" fill="url(#svg_7)"/>
 </g>
</svg>