<svg width="1920" height="100" xmlns="http://www.w3.org/2000/svg" preserveAspectRatio="xMidYMid">
 <g>
  <title>Layer 1</title>
  <path transform="rotate(-179.77 912.999 -12.1192)" fill="#1e3e89" d="m-163.00177,-103.49254l71.7334,6.29897c71.7334,6.77436 215.20022,18.65921 358.66701,12.71679c143.46682,-5.94242 286.93361,-32.08909 430.40043,-25.31473c143.46682,6.29897 286.93361,44.3305 430.40043,44.3305c143.46682,0 286.93361,-38.03153 430.40043,-44.3305c143.46682,-6.77436 286.93361,19.37231 358.66701,31.6137l71.7334,12.71679l0,152.12608l-71.7334,0c-71.7334,0 -215.20022,0 -358.66701,0c-143.46682,0 -286.93361,0 -430.40043,0c-143.46682,0 -286.93361,0 -430.40043,0c-143.46682,0 -286.93361,0 -430.40043,0c-143.46682,0 -286.93361,0 -358.66701,0l-71.7334,0l0,-190.15761l0,0.00001z" id="svg_1" stroke="null"/>
 </g>

</svg>