<svg width="1440" height="215" xmlns="http://www.w3.org/2000/svg">
 <defs>
  <linearGradient id="svg_18" x1="1" y1="1" x2="1" y2="0">
   <stop stop-color="#0099ff" offset="0.16406" stop-opacity="0.98828"/>
   <stop stop-color="#ffffff" stop-opacity="0.99609" offset="1"/>
  </linearGradient>
 </defs>
 <g>
  <title>Layer 1</title>
  <path fill="#0099ff" stroke-width="0" opacity="undefined" d="m-9,110.5l1463,0l0,109l-1463,0l0,-109z" id="svg_2" stroke="null"/>
  <path fill="url(#svg_18)" d="m0,81.5l0,-57.5l36.9,0l0,69l36.9,0l0,-57.5l37,0l0,-11.5l36.9,0l0,-23l36.9,0l0,23l36.9,0l0,57.5l37,0l0,0l36.9,0l0,-11.5l36.9,0l0,46l36.9,0l0,-92l37,0l0,46l36.9,0l0,-57.5l36.9,0l0,34.5l36.9,0l0,46l36.9,0l0,-92l37,0l0,80.5l36.9,0l0,-46l36.9,0l0,-11.5l36.9,0l0,34.5l37,0l0,-46l36.9,0l0,92l36.9,0l0,-46l36.9,0l0,34.5l37,0l0,11.5l36.9,0l0,-80.5l36.9,0l0,23l36.9,0l0,-46l36.9,0l0,46l37,0l0,-11.5l36.9,0l0,34.5l36.9,0l0,-57.5l36.9,0l0,46l37,0l0,11.5l36.9,0l0,-34.5l36.9,0l0,23l36.9,0l0,-46l37,0l0,92l36.9,0l0,-46l36.9,0l0,57.5l-36.9,0l0,0l-36.9,0l0,0l-37,0l0,0l-36.9,0l0,0l-36.9,0l0,0l-36.9,0l0,0l-37,0l0,0l-36.9,0l0,0l-36.9,0l0,0l-36.9,0l0,0l-37,0l0,0l-36.9,0l0,0l-36.9,0l0,0l-36.9,0l0,0l-36.9,0l0,0l-37,0l0,0l-36.9,0l0,0l-36.9,0l0,0l-36.9,0l0,0l-37,0l0,0l-36.9,0l0,0l-36.9,0l0,0l-36.9,0l0,0l-37,0l0,0l-36.9,0l0,0l-36.9,0l0,0l-36.9,0l0,0l-36.9,0l0,0l-37,0l0,0l-36.9,0l0,0l-36.9,0l0,0l-36.9,0l0,0l-37,0l0,0l-36.9,0l0,0l-36.9,0l0,0l-36.9,0l0,0l-37,0l0,0l-36.9,0l0,0l-36.9,0l0,0l0,-34.5z" id="svg_1" stroke="null"/>
 </g>
</svg>