<svg width="1440" height="100" xmlns="http://www.w3.org/2000/svg" style="vector-effect: non-scaling-stroke;" stroke="null">

 <g stroke="null">
  <title stroke="null">Layer 1</title>
  <path stroke="null" id="svg_1" d="m-374.00007,-37.77777l42.35,29.65278c42.35,29.375 127.05,89.09722 211.75,85.13889c84.7,-3.68056 169.4,-70.34722 254.1,-70.34722c84.7,0 169.4,66.66666 254.1,70.34722c84.7,3.95833 169.4,-55.76389 254.1,-66.66666c84.7,-11.31944 169.4,26.18055 254.1,25.97222c84.7,0.20833 169.4,-37.29167 254.1,-33.33333c84.7,3.68056 169.4,48.125 254.1,62.91666c84.7,15.06944 169.4,-0.20833 254.1,-18.47222c84.7,-18.54167 169.4,-40.76389 254.1,-59.30555c84.7,-18.26389 169.4,-33.54167 211.75,-40.69444l42.35,-7.43056l0,199.99999l-42.35,0c-42.35,0 -127.05,0 -211.75,0c-84.7,0 -169.4,0 -254.1,0c-84.7,0 -169.4,0 -254.1,0c-84.7,0 -169.4,0 -254.1,0c-84.7,0 -169.4,0 -254.1,0c-84.7,0 -169.4,0 -254.1,0c-84.7,0 -169.4,0 -254.1,0c-84.7,0 -169.4,0 -254.1,0c-84.7,0 -169.4,0 -254.1,0c-84.7,0 -169.4,0 -211.75,0l-42.35,0l0,-177.77777z" fill="#e7008a"/>
 </g>
</svg>