<?xml version="1.0" encoding="utf-8"?>
<!-- Generator: Adobe Illustrator 25.1.0, SVG Export Plug-In . SVG Version: 6.00 Build 0)  -->
<svg version="1.1" id="Layer_1" xmlns="http://www.w3.org/2000/svg" xmlns:xlink="http://www.w3.org/1999/xlink" x="0px" y="0px"
	 viewBox="0 0 362 307.8" style="enable-background:new 0 0 362 307.8;" xml:space="preserve">
<style type="text/css">
	.st0{fill:#60F5B5;}
	.st1{fill:url(#SVGID_1_);}
	.st2{fill:url(#SVGID_2_);}
	.st3{fill:url(#SVGID_3_);}
	.st4{fill:url(#SVGID_4_);}
	.st5{fill:#FFFFFF;}
	.st6{fill:url(#SVGID_5_);}
	.st7{fill:url(#SVGID_6_);}
	.st8{fill:url(#SVGID_7_);}
	.st9{fill:#0C293F;}
	.st10{fill:#195287;}
	.st11{fill:#18DA8E;}
	.st12{fill:#B8FADE;}
	.st13{fill:#F7C07C;}
	.st14{fill:#18AA77;}
</style>
<g>
	<g>
		<g>
			<path class="st0" d="M179.9,291c79.1,0,145.3-45.1,162.6-105.6c6.4-22.2,3.7-65.6-50.6-78.4c-60.2-14.2-8.8-60.8-55.7-81.8
				c-17.6-5.2-36.5-8-56.3-8c-92.2,0-166.9,61.3-166.9,136.9S87.7,291,179.9,291z"/>
		</g>
		<g>
			<g>
				<linearGradient id="SVGID_1_" gradientUnits="userSpaceOnUse" x1="61.7747" y1="285.2448" x2="204.4934" y2="196.7063">
					<stop  offset="0" style="stop-color:#18AA77;stop-opacity:0.5"/>
					<stop  offset="0.4187" style="stop-color:#18AC78;stop-opacity:0.2906"/>
					<stop  offset="0.6406" style="stop-color:#18B47C;stop-opacity:0.1796"/>
					<stop  offset="0.8163" style="stop-color:#18C282;stop-opacity:9.173355e-02"/>
					<stop  offset="0.9669" style="stop-color:#18D58B;stop-opacity:1.638672e-02"/>
					<stop  offset="0.9997" style="stop-color:#18DA8E;stop-opacity:0"/>
				</linearGradient>
				<polygon class="st1" points="182.3,189.9 104.5,207.4 117.6,212.5 116,212.9 83.2,221.4 76.6,236.5 131.8,252.9 265.3,210.3 
									"/>
				<g>
					
						<linearGradient id="SVGID_2_" gradientUnits="userSpaceOnUse" x1="1421.2823" y1="4727.436" x2="1473.5007" y2="4727.436" gradientTransform="matrix(0.8124 -0.5831 -0.5831 -0.8124 1873.9519 4904.7441)">
						<stop  offset="0" style="stop-color:#18AA77"/>
						<stop  offset="0.4784" style="stop-color:#18C383;stop-opacity:0.5215"/>
						<stop  offset="0.9997" style="stop-color:#18DA8E;stop-opacity:0"/>
					</linearGradient>
					<polygon class="st2" points="269,225.2 318.1,209.8 315.9,216.5 268.9,230.8 					"/>
					
						<linearGradient id="SVGID_3_" gradientUnits="userSpaceOnUse" x1="1348.16" y1="4738.2837" x2="1400.3784" y2="4738.2837" gradientTransform="matrix(0.8124 -0.5831 -0.5831 -0.8124 1873.9519 4904.7441)">
						<stop  offset="0" style="stop-color:#18AA77"/>
						<stop  offset="0.4784" style="stop-color:#18C383;stop-opacity:0.5215"/>
						<stop  offset="0.9997" style="stop-color:#18DA8E;stop-opacity:0"/>
					</linearGradient>
					<polygon class="st3" points="203.3,259 252.4,243.6 250.2,250.3 203.2,264.6 					"/>
					
						<linearGradient id="SVGID_4_" gradientUnits="userSpaceOnUse" x1="1264.9834" y1="4863.1772" x2="1317.2018" y2="4863.1772" gradientTransform="matrix(0.8124 -0.5831 -0.5831 -0.8124 1873.9519 4904.7441)">
						<stop  offset="0" style="stop-color:#18AA77"/>
						<stop  offset="0.4784" style="stop-color:#18C383;stop-opacity:0.5215"/>
						<stop  offset="0.9997" style="stop-color:#18DA8E;stop-opacity:0"/>
					</linearGradient>
					<polygon class="st4" points="62.9,206 112,190.7 109.8,197.3 62.8,211.6 					"/>
					<g>
						<g>
							<g>
								<path class="st5" d="M199.8,183.4l-0.3,78.3c0,0,0,2.1,3.8,2.7c3.8,0.6,4.6-2.4,4.6-2.4l0.3-79.6L199.8,183.4z"/>
								
									<linearGradient id="SVGID_5_" gradientUnits="userSpaceOnUse" x1="3061.0344" y1="159.3727" x2="3061.0344" y2="205.594" gradientTransform="matrix(-1 0 0 1 3265.0203 0)">
									<stop  offset="0" style="stop-color:#00BB82"/>
									<stop  offset="0.4685" style="stop-color:#13D390;stop-opacity:0.5313"/>
									<stop  offset="0.9997" style="stop-color:#25EA9D;stop-opacity:0"/>
								</linearGradient>
								<polygon class="st6" points="199.7,221.9 199.8,183.4 208.3,182.5 208.1,221.9 								"/>
								<path class="st5" d="M265.5,150.8l-0.9,77.1c0,0,0,2.1,3.2,2.8c3.2,0.7,4-2.3,4-2.3l0.9-78.3L265.5,150.8z"/>
								
									<linearGradient id="SVGID_6_" gradientUnits="userSpaceOnUse" x1="2996.061" y1="128.572" x2="2996.061" y2="176.6638" gradientTransform="matrix(-1 0 0 1 3265.0203 0)">
									<stop  offset="0" style="stop-color:#00BB82"/>
									<stop  offset="0.4685" style="stop-color:#13D390;stop-opacity:0.5313"/>
									<stop  offset="0.9997" style="stop-color:#25EA9D;stop-opacity:0"/>
								</linearGradient>
								<polygon class="st7" points="265.2,178.7 265.5,150.8 272.7,150 272.4,178.7 								"/>
								<path class="st5" d="M59.3,139.6l0.1,68.9c0,0,0,2.1,3.1,2.7c3.1,0.6,3.8-2.4,3.8-2.4l-0.1-70.2L59.3,139.6z"/>
								
									<linearGradient id="SVGID_7_" gradientUnits="userSpaceOnUse" x1="3202.199" y1="113.0344" x2="3202.199" y2="166.7883" gradientTransform="matrix(-1 0 0 1 3265.0203 0)">
									<stop  offset="0" style="stop-color:#00BB82"/>
									<stop  offset="0.4685" style="stop-color:#13D390;stop-opacity:0.5313"/>
									<stop  offset="0.9997" style="stop-color:#25EA9D;stop-opacity:0"/>
								</linearGradient>
								<polygon class="st8" points="59.4,169.3 59.3,139.6 66.3,138.7 66.3,169.3 								"/>
								<path class="st5" d="M104.1,201.2l-0.8,10.7c0,0-0.3,2.3,2.1,3.5c2.3,1.1,9.1,2.5,17.7-1.1c9.2-3.9,11.3-6.4,11.3-6.4
									s3-1.7,2.4-5.8s-5.3-6.2-9.2-6c-4,0.2-11.3,2.1-11.3,2.1L104.1,201.2z"/>
								<path class="st9" d="M116.6,208.1c0,0,22.7-5.2,29,4.6l-1.3,2.4c0,0-10.3-3.4-20.8,1.9L116.6,208.1z"/>
								<path class="st9" d="M121,189.6c-0.3,4-0.6,8-1,12c0,0-3.2,4-7.4,4.1c-5.9,0.2-8.5-2.9-8.5-2.9l0.4-12.2L121,189.6z"/>
								<path class="st5" d="M142.2,217.7l-0.9,11.4c0,0,0.2,3.7,2.8,5c2.4,1.2,8.8,2.6,18.2-2.4c9.4-5,12-6.8,12-6.8
									s3.2-1.8,2.6-6.2s-5.6-6.6-9.8-6.4c-4.2,0.2-12,2.2-12,2.2L142.2,217.7z"/>
								<path class="st10" d="M163.5,173.6c-0.1,1.7-1.3,25-4.7,45c0,0-3.6,4-8.2,3.9c-6.2-0.2-8.6-3.2-8.6-3.2l1.7-23.7l7.5-7.1
									l-0.9-12.5l6-5.8C156.4,170.1,163.9,159.8,163.5,173.6z"/>
								<path class="st9" d="M92.6,182.9l53.6-7.6c-0.1-1.2-0.4-2-0.4-2s8.8,1.7,8,12c-0.8,10.3-13.8,14.3-13.8,14.3
									c-26.7,8.6-39.6-0.6-39.6-0.6l-1.6-2.7l-3.8-0.5L92.6,182.9z"/>
								<path class="st10" d="M102.2,183.4c0,0,3.6,4.6,14.4,6.1c10.8,1.5,42.4-15.1,42.4-15.1s3.9-7.3-1.9-9.3
									c-5.8-1.9-18.8-9.7-36.3-1.5l-12.8,10.8L102.2,183.4z"/>
								<polygon class="st11" points="53.6,134.5 53.7,140 203.9,186.9 203.6,174.6 								"/>
								<path class="st12" d="M203.9,186.9l75.9-38.5l-0.1-6l-76.1,29.3C203.5,171.6,203.9,187.1,203.9,186.9z"/>
								<polygon class="st5" points="203.7,180.9 279.6,142.4 133.8,104 53.6,134.5 								"/>
								<g>
									<polygon class="st12" points="202.7,144.6 216.6,137.2 233.9,143.1 211.6,156.5 194.4,149 									"/>
									<polygon class="st11" points="224.5,145.4 239.7,151.7 229.2,156.7 213.7,149.7 									"/>
									<path class="st10" d="M209.3,148.7l-18.2,9c-1.2,0.6-2.5,0.8-3.8,0.3l-53.1-17.5c-0.4-0.1-0.2-2.7,0.2-2.9l18.7-7.3
										c0.1-0.1,0.3-0.1,0.4-0.1l56,15.5C210.1,145.9,209.7,148.4,209.3,148.7z"/>
									<path class="st9" d="M209.3,146.4l-18.2,9.3c-1.2,0.6-2.5,0.7-3.8,0.3l-52.9-17.6c-0.4-0.1-0.5-0.7-0.1-1l18.9-8.4
										c0.1-0.1,0.3-0.1,0.4-0.1l55.6,16.4C209.7,145.6,209.8,146.2,209.3,146.4z"/>
									<path class="st10" d="M148.1,135.9l13.5,4c0.2,0.1,0.2,0.3,0,0.4l-2.8,1.5c0,0-0.1,0-0.1,0l-13.3-4.2
										c-0.1,0-0.2-0.2-0.1-0.3l2.7-1.3C148,135.8,148,135.8,148.1,135.9z"/>
									<path class="st10" d="M201.2,145.6l-2.1,1.1c0,0-0.1,0-0.1,0l-2.8-0.9c-0.2-0.1-0.2-0.3,0-0.4l2.1-1.1c0,0,0.1,0,0.1,0
										l2.8,0.9C201.3,145.3,201.4,145.5,201.2,145.6z"/>
									<path class="st10" d="M191.7,144.6l-2.1,1.2c0,0-0.1,0-0.1,0l-2.8-0.8c-0.2,0-0.2-0.3,0-0.4l2.1-1.2c0,0,0.1,0,0.1,0
										l2.8,0.8C191.8,144.3,191.8,144.5,191.7,144.6z"/>
									<path class="st10" d="M186.8,143.2l-2.1,1.2c0,0-0.1,0-0.1,0l-2.8-0.8c-0.2,0-0.2-0.3,0-0.4l2.1-1.2c0,0,0.1,0,0.1,0
										l2.8,0.8C186.9,142.9,187,143.2,186.8,143.2z"/>
									<path class="st10" d="M178.9,138.9l-2.1,1.2c0,0-0.1,0-0.1,0l-2.9-0.8c-0.2,0-0.2-0.3,0-0.4l2.1-1.2c0,0,0.1,0,0.1,0
										l2.9,0.8C179,138.6,179,138.8,178.9,138.9z"/>
									<path class="st10" d="M193.2,149.9l-2.2,1.1c0,0-0.1,0-0.1,0l-2.8-1c-0.2-0.1-0.2-0.3,0-0.4l2.2-1.1c0,0,0.1,0,0.1,0l2.8,1
										C193.3,149.5,193.3,149.8,193.2,149.9z"/>
								</g>
								<path class="st9" d="M123.8,120.1c0,0,6.7-2.2,10,0.8s-2.4,5.7-8.1,7.5C125.7,128.5,120.3,127.4,123.8,120.1z"/>
								<path class="st13" d="M125.7,128.5c0,0,4.8-0.4,5.7-1.5c0.8-1,0.4-2.3-2.9-2.5s-4.8-2.1-1.3-7.7c3.5-5.6,0.9-6.3-2.7-2.1
									c-2.9,3.4-5.8,3.7-5.8,3.7L125.7,128.5z"/>
								<g>
									<path class="st10" d="M235.7,62.2l-1.4,62.2c0,0.8-0.3,2.3-0.8,2.7c-5,3.9-2.8,0.8-4.1,0.4l-85.1-23.8
										c-1.5-0.4-2.6-1.8-2.6-3.4l-0.3-59.2c0-2.2,1.4-2.6,3.6-2.1l88.1,19.7C234.6,59.1,235.7,60.6,235.7,62.2z"/>
									<polygon class="st10" points="142.4,39.1 140.1,40.4 142.7,43.4 144.6,39.6 									"/>
									<path class="st9" d="M233.5,63.9l-0.7,61.3c0,2.2-2.1,3.9-4.2,3.3L142,105.5c-1.5-0.4-2.6-1.8-2.6-3.4L139,42.9
										c0-2.2,1.4-3.3,3.6-2.8l88.2,20.3C232.4,60.8,233.5,62.2,233.5,63.9z"/>
									<path class="st10" d="M173.7,122.2c1.2-0.4,4.6-0.9,4.4-3l-0.9-9.8l17.5,4.9l1.1,10.7c0.1,1.9-0.3,2.8-1.6,3.5l-6.3,3.6
										c-1.5,0.7-2.2,0.9-4.1,0.3l-18.5-4.8c-0.6-0.1-0.8-0.6-0.8-1.1l0-1.6L173.7,122.2z"/>
									<path class="st9" d="M193.5,113.5l1.2,11.4c0.1,1.6,0.3,2-1,2.7l-5.7,3.1c-1.5,0.7-2.2,0.9-4.1,0.3l-18.5-4.9
										c-1-0.2-1.1-1.7-0.1-2l8.5-3.3c1.2-0.4,3.1-0.8,2.9-2.9l-0.6-10.1L193.5,113.5z"/>
									<path class="st10" d="M233.1,114.4l-0.2,11.4c0,2.2-2.1,3.9-4.2,3.3l-86.7-23c-1.5-0.4-2.6-1.8-2.6-3.4l-0.1-11.9
										L233.1,114.4z"/>
									<path class="st10" d="M185.7,54c-0.1-0.5-0.6-0.9-1-0.9c-0.5,0-0.8,0.4-0.7,0.8c0.1,0.5,0.6,0.9,1,0.9
										C185.5,54.9,185.8,54.5,185.7,54z"/>
									<path class="st10" d="M188.5,54.6c-0.1-0.5-0.6-0.9-1-0.9c-0.5,0-0.8,0.4-0.7,0.8c0.1,0.5,0.6,0.9,1,0.9
										C188.3,55.5,188.6,55.1,188.5,54.6z"/>
								</g>
								<path class="st13" d="M115.3,81.3c0.1,3.7,0,7.8-0.6,11.6c-1.7,10-9.7,13.3-14.5,13.3c-4.8,0-10.8-2.7-14-11.7
									c-0.9-2.5-0.4-6.9,1.1-11.6C96.6,83.1,106,82.1,115.3,81.3z"/>
								<path class="st9" d="M107,88.6c-2.1-0.9-4.3-1.8-6.4-2.7H82.8c0.7,11.6,5.3,13.2,5.3,13.2s5.9,2,11.9,0.7
									c0,0,3.8-0.5,6.2-4.1l3.1-8.6C109.2,86,107.3,88.2,107,88.6z"/>
								<path class="st14" d="M117.8,113.3c0,0-2.4-6.5-11.4-8.2c-9-1.7-15.6-1.9-21.7,1.2c-5,2.5-11.2,6.7-11,19.5l31.2,56
									c0,0,9.6,1.4,17.4-3.6c5.7-3.7,7-8.7,7-8.7l-11-45.9L117.8,113.3z"/>
								<path class="st10" d="M70.2,124.5c0,0,2.5-10.3,19-9.7c16.2,0.6,24.9,14.3,26.8,42.7c1.9,26.7-13.1,26.5-22.6,27.4
									L70.2,124.5z"/>
								<path class="st9" d="M121.7,201.6l0,13.1c0,0-1.2,3.5-4.7,3.3c-3.5-0.2-4.7-2.5-4.7-2.5l0-14.1L121.7,201.6z"/>
								<path class="st9" d="M97.8,184.4c0,0,0.2,13.4,6.7,16.4c0,0-5.3,1.5-12.1-1.9c-6.9-3.4-6-16-6-16L97.8,184.4z"/>
								<path class="st10" d="M104.3,200.8c0,0-5.1-1.1-5.5-16.7l-3.9,0.1c0,0,0.2,11,3.5,14C101.3,200.8,104.3,200.8,104.3,200.8z"
									/>
								<path class="st13" d="M133.9,157c-5.3,1.8-13.3,4.5-19.4-16.2l-6-17.7c0,0-5.6-12.1,2.8-14.1c0,0,5.3-2.1,11.3,11.5
									c6.9,15.5,5.3,25.1,11.8,23.1l15.9-3.7c0,0,2.7-1.3,0.9-5.5c-1.8-4.2,3.3-2.7,4.7,1.1c0,0,3.1-2.8,7.1-2
									c3.5,0.7,3.1,2.4,3.1,2.4s2.6,0.5,2.7,2.2c0,0,2.2-0.6,2.4,3.1c0.1,2-0.4,5.1-2,5.5c-1.6,0.4-2.4-0.7-2.3-1.7
									c0,0,0.3-3.4-1.9-0.3c-1.1,1.6-3.6,3.2-8.8,1.4L133.9,157z"/>
								<path class="st11" d="M126.2,130.1c0,0-0.4,3-5,4.3c-4.5,1.3-6.2,2.6-8.5,1.8c0,0-12.5-23.7-2.3-27
									C110.5,109.2,120.1,104,126.2,130.1z"/>
								<path class="st9" d="M129.9,241.8c0,0,2.1-7.7-5.6-15.3c-8.1-8.1-10.2-10.4-23.1-8c-12.7,2.4-20.4,4.3-20.4,11.9l-2.1,1.1
									c0,0-1.9-8.3,3.6-13.2c8.1-7.1,18.1-8.8,30.8-10.4l6.4,3.1c0,0,17.5,8,16.5,30.1l-3.6,1.4"/>
								<path class="st9" d="M92.9,184.6c0,0-15.2,0-21.2-13.2c-6.8-15-10.4-54.2,10.3-54.8c19.4-0.6,27,21.1,27.9,40.1
									S108.1,186.8,92.9,184.6z"/>
							</g>
							<g>
								<g>
									<path class="st10" d="M241.5,130.2l13.1,0.4l-1.1,13.8c0,0-4.1,4-10.1,0.6L241.5,130.2z"/>
									
										<ellipse transform="matrix(1.468925e-02 -0.9999 0.9999 1.468925e-02 113.7951 376.5657)" class="st9" cx="248" cy="130.5" rx="1.6" ry="6.5"/>
								</g>
								<polygon class="st10" points="249.2,133.9 253.1,118.6 255.8,116 256.2,119.8 251.9,134.6 								"/>
								<path class="st5" d="M248.7,114.1l2,3.1l0.4,13.4l0,1.4c-0.8,0.1-1.8,0.2-2.8,0.2l-0.1-1.6l-0.8-12.8L248.7,114.1z"/>
								<path class="st9" d="M242.1,117l2.5,2.4l2.7,10.6l0.4,1.7c-0.1,0-0.3,0-0.4,0c-0.9-0.1-1.7-0.2-2.5-0.4l-0.5-1.6l-2.7-9.2
									L242.1,117z"/>
							</g>
						</g>
						<g>
							<path class="st9" d="M130.9,238.1c0,0-4.7,0.8-5.3,7c-0.4,4.6,3.4,8.1,8.8,7.7c3.1-0.2,0.5-3.7,0.8-8.2
								C135.5,240.1,133.6,236.8,130.9,238.1z"/>
							<path class="st10" d="M134.4,238.5c0,0-4.9,0.6-5,7.1c-0.1,6.5,2.8,7.1,6,7.1c3.3,0,5.6-2.8,5.6-7.4
								C141,240.6,137.2,237.7,134.4,238.5z"/>
						</g>
						<g>
							<path class="st9" d="M77.1,223.6c0,0-4.5,0.7-5,6.6c-0.4,4.4,3.2,7.6,8.3,7.3c3-0.2,0.5-3.5,0.8-7.7S79.7,222.3,77.1,223.6z"
								/>
							<path class="st10" d="M80.4,223.9c0,0-4.6,0.6-4.7,6.7c-0.1,6.1,2.7,6.7,5.7,6.7c3.1,0,5.3-2.7,5.3-7
								C86.6,225.9,83.1,223.2,80.4,223.9z"/>
						</g>
						<path class="st9" d="M84.8,87.6c0,0,5.3,0.9,10.9,0.8c0,0-0.5-4.9-5.3-5.2C85.5,82.9,85.1,85.3,84.8,87.6z"/>
						<path class="st9" d="M150.8,142.7c0,0,2.4,1.8,1.4,5.7l3.9-2.2c0,0,0.7-3.3-2.5-5.1L150.8,142.7z"/>
						<ellipse class="st5" cx="150.8" cy="140.8" rx="4" ry="2.9"/>
					</g>
					<g>
						<g>
							
								<ellipse transform="matrix(0.8778 -0.479 0.479 0.8778 6.4299 129.3045)" class="st14" cx="256.7" cy="52" rx="14.6" ry="19.5"/>
							<path class="st14" d="M252.9,59c0,0,3.4,9.8-1.9,15.3c0,0,9.2,5.2,11-7.1L252.9,59z"/>
						</g>
						<g>
							
								<ellipse transform="matrix(0.8778 -0.479 0.479 0.8778 -1.0506 118.355)" class="st5" cx="231.5" cy="61.2" rx="14.6" ry="19.5"/>
							<path class="st5" d="M241.8,66.8c0,0-0.1,9.6,7,15.8c0,0-7.6,4.2-13.6-8.5L241.8,66.8z"/>
						</g>
						<g>
							
								<ellipse transform="matrix(0.8778 -0.479 0.479 0.8778 6.2945 125.7515)" class="st0" cx="249.6" cy="50.5" rx="2.4" ry="3.2"/>
							
								<ellipse transform="matrix(0.8778 -0.479 0.479 0.8778 6.2932 129.6084)" class="st0" cx="257.2" cy="52.5" rx="2.4" ry="3.2"/>
							
								<ellipse transform="matrix(0.8778 -0.479 0.479 0.8778 6.2918 133.4652)" class="st0" cx="264.7" cy="54.4" rx="2.4" ry="3.2"/>
						</g>
						<polygon class="st0" points="224.7,57.9 222.4,60.4 229.6,70.3 240.8,58.2 237.8,54.4 229.2,63.9 						"/>
					</g>
					<g>
						<polygon class="st14" points="157.5,45.7 163,72.1 157.4,67.8 153.3,44.1 						"/>
						<polygon class="st11" points="152.6,41.3 148.6,69.1 153.9,67.1 157.4,43.7 						"/>
						<g>
							
								<ellipse transform="matrix(0.8778 -0.479 0.479 0.8778 -2.1601 79.5304)" class="st5" cx="154.8" cy="44" rx="8.8" ry="11.8"/>
							<g>
								<path class="st11" d="M148.7,44.5l0.2-1.3l1.3,0.3l0.2-1.4l-1.3-0.3l0.2-1.3l1.3,0.3l0.3-2l1.3,0.3l-0.3,2l1.4,0.3l0.3-2
									l1.4,0.3l-0.3,2l1.4,0.3l-0.2,1.4l-1.4-0.4l-0.2,1.5l1.4,0.4l-0.2,1.4l-1.4-0.4l-0.3,2l-1.3-0.4l0.3-2l-1.4-0.4l-0.3,2
									l-1.3-0.4l0.3-1.9L148.7,44.5z M151.5,43.9l1.4,0.4l0.2-1.5l-1.4-0.4L151.5,43.9z"/>
								<path class="st11" d="M158.3,49.3l0.1-6.8l-1.1,0.5l0-1.6l1.6-0.8l1.2,0.3l-0.2,8.9L158.3,49.3z"/>
							</g>
						</g>
					</g>
				</g>
			</g>
			<path class="st5" d="M115.5,74c0,0-3-10.4-13.2-10c-10.2,0.4-19,3.7-20.1,14.9c0,0,5,4.6,7.3,5.1c2.3,0.5,14.1,0,15.6-0.7
				c1.6-0.7,8.3,0.6,10.5-8.4"/>
			<path class="st12" d="M117.6,77.3l0.4,6.4c0,0,0.2,2.7-4.7,3.5c-3.5,0.6-17.4,4.9-29.3,2.2c0,0-2.6-0.2-3.1-3.7s-1-7.3,0.5-8
				c1-0.5,1.1,0,1.1,0s5,1.3,10.4,1.5c5,0.1,16.3-2,18.7-2.5c3.9-0.8,3.9-2.8,3.9-2.8S117.5,73.2,117.6,77.3z"/>
			<path class="st9" d="M117.8,89.6c-0.2,5-2.6,8.3-7,8.5c-4.9,0.3-6.9-4-6.7-9.1c0.2-5,3.1-7.8,6.9-8
				C116,80.8,117.9,84.6,117.8,89.6z"/>
			<path class="st9" d="M107.5,84.1c0,0,0.7-11.9-4.1-15.1c-4.8-3.2-16.6-3.5-20.1,4.9c0,0-0.1-3.5,0.8-5.5c1.6-3.5,5.7-4.9,8.8-5.4
				c3.8-0.6,15.9-0.9,18.4,8.4c2.9,10.5,1.3,16.5,1.3,16.5L107.5,84.1z"/>
			
				<ellipse transform="matrix(3.709389e-02 -0.9993 0.9993 3.709389e-02 19.9133 199.546)" class="st10" cx="113.5" cy="89.4" rx="7.6" ry="4.2"/>
			<path class="st9" d="M111.3,106.8c0,0,1.3,0.7,1.4,0.7c-0.1-3.3-0.1-6.7,0.1-10c-0.5,0-1,0-1.5,0
				C111.2,100.6,111.3,106.7,111.3,106.8z"/>
			<g>
				<path class="st9" d="M168.6,113.2c0,0.9-0.3,1.8-0.5,2.6c-0.7,2.1-2.4,3.2-4.6,2.8c-3-0.5-5.4-2.6-7.9-4.2
					c-2.3-1.4-5.6-3.2-8.3-1.8c-2.4,1.2-2.3,3.5-1.3,5.7c1.1,2.4,2.8,4.9,0.2,7c-3.2,2.5-7.3,4.6-11.5,5c-3.1,0.3-5.9-0.5-8.8-1.5
					c0.2,0.6,0.3,1.2,0.4,1.7c1.3,0.4,2.6,0.8,4,1c4.1,0.6,8.2-0.2,11.9-2.1c1.9-1,3.9-2.1,5.4-3.6c0.9-0.9,1.5-2.2,1.3-3.5
					c-0.1-1.3-0.7-2.5-1.3-3.6c-0.5-1-1.3-2.3-1-3.4c0.3-1.6,2.3-1.9,3.6-1.7c1.8,0.3,3.4,1.3,4.9,2.3c2.6,1.7,5.1,3.8,8.3,4.1
					c2.6,0.3,4.8-1,5.8-3.4c0.4-0.9,0.7-2,0.7-3L168.6,113.2z"/>
			</g>
		</g>
	</g>
	<g>
		
			<ellipse transform="matrix(0.7295 -0.684 0.684 0.7295 -5.313415e-02 146.2563)" class="st0" cx="184.9" cy="73.2" rx="8.8" ry="10.1"/>
		<g>
			<path class="st0" d="M201.1,106.2c0-9.5-7.7-18.2-17.2-19.4c-8.1-1-14.9,3.7-16.7,11.1l33.9,8.5
				C201.1,106.3,201.1,106.2,201.1,106.2z"/>
		</g>
	</g>
</g>
</svg>
