<?xml version="1.0" encoding="utf-8"?>
<!-- Generator: Adobe Illustrator 23.0.1, SVG Export Plug-In . SVG Version: 6.00 Build 0)  -->
<svg version="1.1" id="Layer_1" xmlns="http://www.w3.org/2000/svg" xmlns:xlink="http://www.w3.org/1999/xlink" x="0px" y="0px"
	 viewBox="0 0 1000 1000" style="enable-background:new 0 0 1000 1000;" xml:space="preserve">
<style type="text/css">
	.st0{fill:#FFFFFF;}
	.st1{fill:#663795;}
</style>
<path class="st0" d="M890.9,501.8H642.2v71.1h170.6c-24.9,106.6-103.1,195.4-206.1,231L197.9,395.2
	C240.5,270.8,361.4,181.9,500,181.9c106.6,0,202.6,53.3,263,135.1l53.3-46.2c-71.1-96-184.8-160-316.3-160
	c-184.8,0-341.2,131.5-380.3,305.6l469.1,469.1C759.4,842.9,890.9,686.6,890.9,501.8L890.9,501.8z M109.1,505.4
	c0,99.5,39.1,195.4,113.7,270.1s174.1,113.7,270.1,113.7L109.1,505.4z"/>
<path class="st1" d="M500,2.5C226.4,2.5,2.5,226.4,2.5,500S226.4,997.5,500,997.5S997.5,773.6,997.5,500S773.6,2.5,500,2.5z
	 M222.8,777.2c-74.6-74.6-113.7-174.1-113.7-270.1l387.4,383.8C396.9,887.3,297.4,851.8,222.8,777.2L222.8,777.2z M585.3,880.3
	L119.7,414.7C158.8,240.6,315.2,109.1,500,109.1c131.5,0,245.2,64,316.3,159.9L763,315.2c-60.4-81.7-156.4-135-263-135
	c-138.6,0-255.9,88.8-302.1,213.2l408.7,408.7c103.1-35.5,181.2-124.4,206.1-231H642.2V500h248.8
	C890.9,684.8,759.5,841.2,585.3,880.3L585.3,880.3z"/>
</svg>
